<svg width="103" height="102" viewBox="0 0 103 102" fill="none" xmlns="http://www.w3.org/2000/svg">
<mask id="mask0" mask-type="alpha" maskUnits="userSpaceOnUse" x="0" y="0" width="100" height="100">
<rect width="100" height="100" fill="#C4C4C4"/>
</mask>
<g mask="url(#mask0)">
</g>
<path d="M53.0001 97.7142C78.2474 97.7142 98.7144 77.2472 98.7144 51.9999C98.7144 26.7526 78.2474 6.28564 53.0001 6.28564C27.7527 6.28564 7.28572 26.7526 7.28572 51.9999C7.28572 77.2472 27.7527 97.7142 53.0001 97.7142Z" fill="#4DA0DC"/>
<path opacity="0.1" d="M64.225 30.4242H26.7821C25.5821 30.4242 24.6178 31.3885 24.6178 32.8956V69.3242C24.6178 69.7813 24.7607 70.2028 25.0035 70.5527L25.0107 70.5599C25.1535 70.7742 25.3321 70.9527 25.5464 71.0956L52.1433 97.6925C52.4294 97.6977 52.7127 97.7141 53 97.7141C78.2473 97.7141 98.7144 77.2471 98.7144 51.9999C98.7144 49.9485 98.5657 47.9329 98.3039 45.9531L75.8393 23.4885C74.6607 22.3099 69.6607 25.3527 64.225 30.4242Z" fill="black"/>
<path d="M43.5069 68.3289H62.481V78.5749H43.5069V68.3289Z" fill="#344D5B"/>
<path d="M64.3367 76.6626H41.6632C40.4814 76.6626 39.5233 77.6207 39.5233 78.8025V80.4871H66.4766V78.8025C66.4766 77.6207 65.5186 76.6626 64.3367 76.6626Z" fill="#3A556A"/>
<path d="M79.221 30.4258H26.779C25.5806 30.4258 24.6155 31.3909 24.6155 32.8984V68.1383H81.3844V32.8984C81.3844 31.3909 80.4194 30.4258 79.221 30.4258Z" fill="#344D5B"/>
<path d="M27.8793 33.3914H78.1208V63.5687H27.8793V33.3914Z" fill="#FEDA6F"/>
<path d="M24.6155 66.8335V69.3249C24.6155 70.5233 25.5806 71.4885 26.779 71.4885H79.221C80.4194 71.4885 81.3845 70.5233 81.3845 69.3249V66.8335H24.6155Z" fill="#EDEDED"/>
<path d="M53 67.1533C52.3508 67.1533 51.8245 67.6795 51.8245 68.3287C51.8245 68.9778 52.3508 69.5041 53 69.5041C53.6492 69.5041 54.1755 68.9778 54.1755 68.3287C54.1755 67.6795 53.6492 67.1533 53 67.1533Z" fill="#EBF0F3"/>
<path d="M59.0828 39.3113H35.217C34.4445 39.3113 33.8182 39.9375 33.8182 40.7101V50.1581C33.8182 51.1529 34.5455 52.0411 35.5357 52.1356C36.6716 52.2439 37.6273 51.3536 37.6273 50.24V49.7874C37.6273 48.7926 38.3545 47.9043 39.3448 47.81C40.4807 47.7016 41.4364 48.592 41.4364 49.7055V53.4032C41.4364 54.398 42.1636 55.2862 43.1538 55.3806C44.2897 55.489 45.2454 54.5987 45.2454 53.4851V53.123C45.2454 52.1282 45.9726 51.2399 46.9629 51.1456C48.0988 51.0372 49.0545 51.9276 49.0545 53.0411V55.6623C49.0545 56.657 49.7817 57.5452 50.7719 57.6397C51.9078 57.748 52.8635 56.8577 52.8635 55.7441V53.123C52.8635 52.1282 53.5907 51.2399 54.581 51.1456C55.7169 51.0372 56.6726 51.9276 56.6726 53.0411V53.4032C56.6726 54.398 57.3998 55.2862 58.39 55.3806C59.526 55.489 60.4816 54.5986 60.4816 53.4851V40.7101C60.4816 39.9375 59.8554 39.3113 59.0828 39.3113Z" fill="#44C4A1"/>
<path d="M67.1524 36.9105C73.2528 30.81 77.1365 24.8029 75.8267 23.4931C74.517 22.1834 68.5099 26.0671 62.4094 32.1675C56.309 38.268 52.4253 44.2751 53.735 45.5849C55.0448 46.8946 61.0519 43.0109 67.1524 36.9105Z" fill="#CD5248"/>
<path d="M49.6608 49.6656C52.6647 47.7112 55.1074 49.3252 56.8597 47.573C58.6119 45.8207 58.8893 43.2572 57.4793 41.8471C56.0692 40.4371 53.5057 40.7145 51.7534 42.4667C50.0012 44.219 47.6075 51.0016 49.6608 49.6656Z" fill="#344D5B"/>
<path d="M58.3479 44.6592L54.6915 41.003L55.8752 39.8193L59.5316 43.4755L58.3479 44.6592Z" fill="#EDEDED"/>
</svg>
