<svg width="100" height="100" viewBox="0 0 100 100" fill="none" xmlns="http://www.w3.org/2000/svg">
<mask id="mask0" mask-type="alpha" maskUnits="userSpaceOnUse" x="0" y="0" width="100" height="100">
<rect width="100" height="100" fill="#C4C4C4"/>
</mask>
<g mask="url(#mask0)">
</g>
<path d="M50 98C76.5097 98 98 76.5097 98 50C98 23.4903 76.5097 2 50 2C23.4903 2 2 23.4903 2 50C2 76.5097 23.4903 98 50 98Z" fill="#EA8953"/>
<path opacity="0.1" d="M60.65 25.39C60.01 24.9599 59.1 24.4799 57.81 24.0799C55.51 22.7299 52.85 21.95 50 21.95C47.2 21.95 44.57 22.7099 42.3 24.0099C38.71 25.0899 37.91 26.7 37.91 26.7C37.77 27.0099 37.68 27.5099 37.64 28.1199C35.66 30.7299 34.47 33.9699 34.47 37.4899V38.95C33.73 39.5799 33.25 40.5099 33.25 41.5599C33.25 42.3799 33.55 43.1199 34.02 43.7V43.7099L34.04 43.7199C34.18 43.8999 34.34 44.0599 34.52 44.2099L42.41 52.0999V56.0899L39.3 56.8799L37.77 57.2799L32.19 58.7C29.44 59.4099 27.46 61.8099 27.3 64.6499L26.52 78.0499L46.3152 97.8452C47.5327 97.9377 48.7587 97.9999 50 97.9999C72.6247 97.9999 91.5814 82.3423 96.6553 61.2751L61.83 26.45C61.64 26.2099 61.28 25.8199 60.65 25.39Z" fill="black"/>
<path d="M57.5858 56.087H57.585V50.988H42.4149V56.087L39.3011 56.8834C39.9693 62.1977 44.5045 66.3085 50.0001 66.3085C55.4954 66.3085 60.0308 62.1976 60.6988 56.8832L57.5858 56.087Z" fill="#F6C358"/>
<path d="M60.9768 37.0991C60.8105 36.607 59.7417 29.9802 59.5188 29.5278H39.4664C39.2435 29.9802 39.1895 36.607 39.0232 37.0991C37.5658 37.1008 36.3848 38.3272 36.3848 40.5815C36.3848 42.7756 37.5037 45.1345 38.9072 45.2619C40.4035 50.7052 44.8033 55.1255 50 55.1255C55.1967 55.1255 59.5965 50.7052 61.0928 45.2619C62.4963 45.1345 63.6152 42.7756 63.6152 40.5815C63.6152 38.3272 62.4342 37.1008 60.9768 37.0991Z" fill="#FCD462"/>
<path d="M61.9988 26.6959C61.9988 26.6959 60.2393 23.103 49.9539 23.0486C39.6683 23.103 37.9087 26.6959 37.9087 26.6959C36.9844 28.7662 38.3458 39.0051 38.3458 39.0051L39.544 35.3558C40.0645 33.6137 41.3406 33.2855 41.3406 33.2855H49.6465C50.0914 33.2855 50.5276 33.1627 50.907 32.9307L54.9559 30.4544C54.7557 31.8245 54.4507 33.3312 55.3372 33.2855H58.5672C58.5672 33.2855 59.8431 33.6137 60.3636 35.3558L61.5618 39.0051C61.5618 39.0051 62.9234 28.7662 61.9988 26.6959Z" fill="#64798A"/>
<path d="M72.7038 64.6483C72.5401 61.8107 70.5589 59.4052 67.8052 58.7009L62.2311 57.2751C61.371 63.3347 56.148 67.8799 50.0001 67.8799C43.852 67.8799 38.6291 63.3348 37.769 57.2752L32.1949 58.7009C29.4412 59.4052 27.4599 61.8107 27.2962 64.6484L26.5234 78.0487H73.4766L72.7038 64.6483Z" fill="#27A2DB"/>
<path d="M50.0001 67.88C56.148 67.88 61.371 63.3348 62.2311 57.2752L60.6988 56.8833C60.0308 62.1977 55.4956 66.3086 50 66.3086C44.5045 66.3086 39.9693 62.1978 39.3012 56.8834L37.769 57.2753C38.6291 63.3349 43.852 67.88 50.0001 67.88Z" fill="#2D93BA"/>
<path d="M65.5394 39.8572H64.5394V37.4866C64.5394 29.4719 58.0189 22.9514 50.0032 22.9514C41.9886 22.9514 35.4681 29.4719 35.4681 37.4866V39.8572H34.4681V37.4866C34.4681 28.9207 41.4368 21.9514 50.0032 21.9514C58.5696 21.9514 65.5394 28.9207 65.5394 37.4866V39.8572Z" fill="#2F4859"/>
<path d="M33.2476 41.5617C33.2476 43.4624 34.7884 45.0031 36.689 45.0031V38.1204C34.7884 38.1204 33.2476 39.6611 33.2476 41.5617Z" fill="#3A556A"/>
<path d="M37.6952 36.781C37.0296 36.781 36.4901 37.3206 36.4901 37.9863V45.0685C36.4901 45.7342 37.0296 46.2738 37.6952 46.2738C38.3608 46.2738 38.9006 45.7342 38.9006 45.0685V37.9863C38.9006 37.3206 38.3608 36.781 37.6952 36.781Z" fill="#2F4859"/>
<path d="M66.7596 41.4931C66.7596 39.5925 65.2188 38.0518 63.3182 38.0518V44.9345C65.2188 44.9345 66.7596 43.3937 66.7596 41.4931Z" fill="#3A556A"/>
<path d="M62.312 46.2738C62.9776 46.2738 63.5171 45.7342 63.5171 45.0685V37.9863C63.5171 37.3206 62.9776 36.781 62.312 36.781C61.6464 36.781 61.1066 37.3206 61.1066 37.9863V45.0685C61.1066 45.7342 61.6464 46.2738 62.312 46.2738Z" fill="#2F4859"/>
<path d="M64.8962 40.7827C64.2363 40.7827 63.6962 41.3228 63.6962 41.9827C63.6962 42.2236 63.7861 42.4357 63.9096 42.6242C62.6169 44.1611 59.185 47.7538 54.0707 49.6366C53.6967 49.086 52.9977 48.8173 52.3315 49.0303L50.2011 49.7111C49.3901 49.9702 48.9426 50.838 49.2016 51.6491C49.4609 52.4602 50.3286 52.9075 51.1398 52.6483L53.27 51.9676C53.8896 51.7696 54.2941 51.2163 54.3364 50.6047C59.8779 48.5991 63.4811 44.7338 64.7743 43.158C64.8163 43.1625 64.853 43.1827 64.8962 43.1827C65.5661 43.1827 66.0961 42.6427 66.0961 41.9827C66.0961 41.3228 65.5661 40.7827 64.8962 40.7827Z" fill="#64798A"/>
</svg>
