<svg width="100" height="100" viewBox="0 0 100 100" fill="none" xmlns="http://www.w3.org/2000/svg">
<mask id="mask0" mask-type="alpha" maskUnits="userSpaceOnUse" x="0" y="0" width="100" height="100">
<rect width="100" height="100" fill="#C4C4C4"/>
</mask>
<g mask="url(#mask0)">
</g>
<path d="M50 100C77.6142 100 100 77.6142 100 50C100 22.3858 77.6142 0 50 0C22.3858 0 0 22.3858 0 50C0 77.6142 22.3858 100 50 100Z" fill="#F6C863"/>
<path d="M49.0516 64.5063H63.9984V70.2782H49.0516V64.5063Z" fill="#575B6D"/>
<path d="M82.0313 28.1719H31.0188C30.1559 28.1719 29.4563 28.8714 29.4563 29.7344V63.6125C29.4563 64.4755 30.1559 65.175 31.0188 65.175H82.0313C82.8942 65.175 83.5938 64.4755 83.5938 63.6125V29.7344C83.5938 28.8714 82.8942 28.1719 82.0313 28.1719Z" fill="#62667C"/>
<path d="M80.6774 31.0884V60.0712H32.3727V31.0884H80.6774Z" fill="#69B0EE"/>
<path d="M69.4235 69.4585H43.6274C43.3849 69.4585 43.1883 69.6551 43.1883 69.8976V71.389C43.1883 71.6315 43.3849 71.828 43.6274 71.828H69.4235C69.6659 71.828 69.8625 71.6315 69.8625 71.389V69.8976C69.8625 69.6551 69.6659 69.4585 69.4235 69.4585Z" fill="#62667C"/>
<path d="M56.525 63.4883C57.0031 63.4883 57.3906 63.1008 57.3906 62.6227C57.3906 62.1446 57.0031 61.7571 56.525 61.7571C56.0469 61.7571 55.6594 62.1446 55.6594 62.6227C55.6594 63.1008 56.0469 63.4883 56.525 63.4883Z" fill="#DBD8DD"/>
<path d="M35.475 36.374H17.9688C17.1058 36.374 16.4062 37.0736 16.4062 37.9365V70.2654C16.4062 71.1284 17.1058 71.8279 17.9688 71.8279H35.475C36.3379 71.8279 37.0375 71.1284 37.0375 70.2654V37.9365C37.0375 37.0736 36.3379 36.374 35.475 36.374Z" fill="#575B6D"/>
<path d="M18.4297 38.7517H35.0141V42.8306H18.4297V38.7517Z" fill="#828A9E"/>
<path d="M18.4297 45.1311H35.0141V49.21H18.4297V45.1311Z" fill="#828A9E"/>
<path d="M26.7187 58.853C26.2648 58.8523 25.824 58.7013 25.465 58.4235C25.1061 58.1457 24.8493 57.7568 24.7349 57.3175C24.6204 56.8783 24.6547 56.4136 24.8325 55.9959C25.0102 55.5783 25.3213 55.2313 25.7172 55.0092C25.744 54.9896 25.7746 54.9759 25.8071 54.969C25.8396 54.9621 25.8732 54.9622 25.9057 54.9692C25.9381 54.9763 25.9687 54.9902 25.9954 55.01C26.0221 55.0298 26.0443 55.0551 26.0604 55.0841C26.0766 55.1131 26.0865 55.1452 26.0893 55.1783C26.0921 55.2114 26.0879 55.2448 26.0768 55.2761C26.0658 55.3074 26.0482 55.3361 26.0253 55.3601C26.0023 55.3841 25.9745 55.403 25.9437 55.4155C25.6373 55.5873 25.3965 55.8559 25.259 56.1793C25.1216 56.5026 25.0952 56.8623 25.184 57.2023C25.2728 57.5422 25.4718 57.8431 25.7499 58.0578C26.0279 58.2725 26.3694 58.389 26.7207 58.389C27.072 58.389 27.4134 58.2725 27.6915 58.0578C27.9695 57.8431 28.1686 57.5422 28.2574 57.2023C28.3462 56.8623 28.3198 56.5026 28.1823 56.1793C28.0449 55.8559 27.8041 55.5873 27.4976 55.4155C27.4668 55.403 27.4391 55.3841 27.4161 55.3601C27.3932 55.3361 27.3756 55.3074 27.3646 55.2761C27.3535 55.2448 27.3493 55.2114 27.3521 55.1783C27.3549 55.1452 27.3647 55.1131 27.3809 55.0841C27.3971 55.0551 27.4193 55.0298 27.446 55.01C27.4726 54.9902 27.5032 54.9763 27.5357 54.9692C27.5681 54.9622 27.6017 54.9621 27.6342 54.969C27.6667 54.9759 27.6974 54.9896 27.7242 55.0092C28.1204 55.2315 28.4317 55.5789 28.6094 55.997C28.787 56.4151 28.821 56.8803 28.7059 57.3198C28.5909 57.7593 28.3333 58.1482 27.9736 58.4256C27.6138 58.7031 27.1722 58.8534 26.718 58.853H26.7187Z" fill="#DBD8DD"/>
<path d="M26.7235 57.0374C26.6534 57.0374 26.5863 57.0096 26.5368 56.9601C26.4872 56.9105 26.4594 56.8434 26.4594 56.7733V54.1679C26.4594 54.0978 26.4872 54.0307 26.5368 53.9812C26.5863 53.9316 26.6534 53.9038 26.7235 53.9038C26.7935 53.9038 26.8607 53.9316 26.9102 53.9812C26.9597 54.0307 26.9875 54.0978 26.9875 54.1679V56.7733C26.9875 56.8434 26.9597 56.9105 26.9102 56.9601C26.8607 57.0096 26.7935 57.0374 26.7235 57.0374Z" fill="#DBD8DD"/>
<path d="M31.4977 51.7617H34.5055V52.9922H31.4977V51.7617Z" fill="#414451"/>
<path d="M18.9383 51.7617H21.9461V52.9922H18.9383V51.7617Z" fill="#414451"/>
<path d="M18.9383 60.967H34.3149V61.742H18.9383V60.967Z" fill="#414451"/>
<path d="M18.9383 63.3296H34.3149V64.1046H18.9383V63.3296Z" fill="#414451"/>
<path d="M18.9383 65.6914H34.3149V66.4664H18.9383V65.6914Z" fill="#414451"/>
<path d="M18.9383 68.053H34.3149V68.828H18.9383V68.053Z" fill="#414451"/>
<path opacity="0.5" d="M44.1609 60.0712H42.382L58.9836 31.0884H60.7625L44.1609 60.0712Z" fill="#EEEFEE"/>
<path opacity="0.5" d="M54.0664 60.0712H47.9406L64.5422 31.0884H70.668L54.0664 60.0712Z" fill="#EEEFEE"/>
</svg>
