<svg width="101" height="102" viewBox="0 0 101 102" fill="none" xmlns="http://www.w3.org/2000/svg">
<mask id="mask0" mask-type="alpha" maskUnits="userSpaceOnUse" x="1" y="0" width="100" height="100">
<rect x="1" width="100" height="100" fill="#C4C4C4"/>
</mask>
<g mask="url(#mask0)">
</g>
<path d="M50 102C77.6142 102 100 79.6142 100 52C100 24.3858 77.6142 2 50 2C22.3858 2 0 24.3858 0 52C0 79.6142 22.3858 102 50 102Z" fill="#FF8D8D"/>
<path d="M19.7035 61.626L34.3711 76.2936L32.2679 86.6807L47.5258 101.938C48.3457 101.979 49.1703 102 50 102C77.6142 102 100 79.6143 100 52C100 48.1852 99.5707 44.4707 98.7615 40.9006L80.2965 22.4355L19.7035 61.626Z" fill="#FF5B5B"/>
<path d="M49.999 61.6299L38.5388 41.7803C35.2187 43.6971 34.0812 47.9426 35.998 51.2627L45.9912 68.5715L40.0761 78.8166L44.4465 85.1303L49.999 75.5131L51.9523 68.6191L49.999 61.6299Z" fill="white"/>
<path d="M41.6244 74.5977C37.9365 72.4686 33.2209 73.7321 31.0917 77.42C28.9626 81.1079 30.2261 85.8235 33.914 87.9526C37.6019 90.0817 42.3175 88.8182 44.4466 85.1303C46.5757 81.4425 45.3123 76.7268 41.6244 74.5977ZM36.2273 83.9458C34.7546 83.0956 34.2484 81.2057 35.0986 79.7333C35.9488 78.2606 37.8386 77.7544 39.3111 78.6046C40.7837 79.4548 41.2902 81.3446 40.4398 82.8171C39.5896 84.2897 37.7 84.796 36.2273 83.9458Z" fill="#6C67D2"/>
<path d="M50 61.626H19.7035V22.4355H50L51.9533 42.0898L50 61.626Z" fill="#6C67D2"/>
<path d="M23.9883 29.958H46.3006V54.1037H23.9883V29.958Z" fill="#544F56"/>
<path d="M80.2964 61.6262H50V22.4358H80.2964V61.6262Z" fill="#534DCA"/>
<path d="M22.3796 24.2563H25.8289V27.7056H22.3796V24.2563Z" fill="#FF8D8D"/>
<path d="M29.7784 24.2563H33.2277V27.7056H29.7784V24.2563Z" fill="#FF8D8D"/>
<path d="M37.1773 24.2563H40.6265V27.7056H37.1773V24.2563Z" fill="#FF8D8D"/>
<path d="M44.5759 24.2563H48.0251V27.7056H44.5759V24.2563Z" fill="#FF8D8D"/>
<path d="M77.6203 27.6082H74.1711V24.1589H77.6203V27.6082Z" fill="#FF5B5B"/>
<path d="M70.2214 27.6082H66.7722V24.1589H70.2214V27.6082Z" fill="#FF5B5B"/>
<path d="M62.8226 27.6082H59.3734V24.1589H62.8226V27.6082Z" fill="#FF5B5B"/>
<path d="M55.424 27.6082H51.9747V24.1589H55.424V27.6082Z" fill="#FF5B5B"/>
<path d="M22.3796 56.2234H25.8289V59.6726H22.3796V56.2234Z" fill="#FF8D8D"/>
<path d="M29.7784 56.2234H33.2277V59.6726H29.7784V56.2234Z" fill="#FF8D8D"/>
<path d="M37.1773 56.2234H40.6265V59.6726H37.1773V56.2234Z" fill="#FF8D8D"/>
<path d="M44.5759 56.2234H48.0251V59.6726H44.5759V56.2234Z" fill="#FF8D8D"/>
<path d="M77.6203 59.5752H74.1711V56.126H77.6203V59.5752Z" fill="#FF5B5B"/>
<path d="M70.2214 59.5752H66.7722V56.126H70.2214V59.5752Z" fill="#FF5B5B"/>
<path d="M62.8226 59.5752H59.3734V56.126H62.8226V59.5752Z" fill="#FF5B5B"/>
<path d="M55.424 59.5752H51.9747V56.126H55.424V59.5752Z" fill="#FF5B5B"/>
<path d="M76.0117 54.1035H53.6994V29.9578H76.0117V54.1035Z" fill="#403B41"/>
<path d="M61.4592 41.7803L49.999 61.6299V75.5131L55.5516 85.1303L59.9219 78.8166L54.0068 68.5715L64 51.2627C65.917 47.9426 64.7795 43.6971 61.4592 41.7803Z" fill="#E6E6FF"/>
<path d="M55.5515 85.1303C57.6806 88.8182 62.3963 90.0817 66.0841 87.9526C69.772 85.8235 71.0355 81.1079 68.9064 77.42C66.7773 73.7321 62.0617 72.4686 58.3738 74.5977C54.6859 76.7268 53.4224 81.4425 55.5515 85.1303ZM59.5582 82.8171C58.708 81.3444 59.2144 79.4548 60.6869 78.6046C62.1595 77.7544 64.0492 78.2608 64.8994 79.7333C65.7496 81.2059 65.2433 83.0956 63.7707 83.9458C62.2982 84.796 60.4084 84.2897 59.5582 82.8171Z" fill="#534DCA"/>
<path d="M46.9509 68.6193C46.9509 66.9359 48.3156 65.5713 49.999 65.5713L51.9523 68.6193L49.999 71.6674C48.3156 71.6674 46.9509 70.3027 46.9509 68.6193Z" fill="#9CD29A"/>
<path d="M53.049 68.6193C53.049 70.3027 51.6844 71.6674 50.001 71.6674V65.5713C51.6844 65.5713 53.049 66.9359 53.049 68.6193Z" fill="#00A963"/>
</svg>
