<svg width="103" height="100" viewBox="0 0 103 100" fill="none" xmlns="http://www.w3.org/2000/svg">
<mask id="mask0" mask-type="alpha" maskUnits="userSpaceOnUse" x="0" y="0" width="100" height="100">
<rect width="100" height="100" fill="#C4C4C4"/>
</mask>
<g mask="url(#mask0)">
</g>
<path d="M53 100C80.6142 100 103 77.6142 103 50C103 22.3858 80.6142 0 53 0C25.3858 0 3 22.3858 3 50C3 77.6142 25.3858 100 53 100Z" fill="#FFCE00"/>
<path d="M103 49.9999C103 48.4802 102.932 46.9761 102.799 45.4907L86.1475 28.839L79.4084 35.0458L63.6639 19.3013L20.033 71.4077L48.418 99.7927C49.927 99.9298 51.4553 99.9999 53 99.9999C80.6143 99.9999 103 77.6142 103 49.9999Z" fill="#FFA300"/>
<path d="M80.61 25.9475H66.2469L64.225 20.4C63.4963 18.4008 61.5955 17.0706 59.4678 17.0706H46.5328C44.4049 17.0706 42.5041 18.4008 41.7756 20.4L39.7537 25.9475H25.3906C21.6623 25.9475 18.6396 28.97 18.6396 32.6985V67.3018C18.6396 71.0301 21.6621 74.0528 25.3906 74.0528H80.6103C84.3387 74.0528 87.3613 71.0303 87.3613 67.3018V32.6985C87.3607 28.97 84.3383 25.9475 80.61 25.9475Z" fill="#707789"/>
<path d="M80.61 25.9475H66.2469L64.225 20.4C63.4963 18.4008 61.5955 17.0706 59.4678 17.0706H52.9699V74.0526H80.6102C84.3385 74.0526 87.3611 71.0301 87.3611 67.3016V32.6985C87.3607 28.97 84.3383 25.9475 80.61 25.9475Z" fill="#555A66"/>
<path d="M53 70.9023C64.228 70.9023 73.3301 61.8003 73.3301 50.5723C73.3301 39.3443 64.228 30.2422 53 30.2422C41.772 30.2422 32.6699 39.3443 32.6699 50.5723C32.6699 61.8003 41.772 70.9023 53 70.9023Z" fill="#9196AA"/>
<path d="M53 30.2422C52.9898 30.2422 52.9797 30.2426 52.9695 30.2426V70.9022C52.9797 70.9022 52.9898 70.9025 53 70.9025C64.2279 70.9025 73.3301 61.8004 73.3301 50.5725C73.3301 39.3445 64.2279 30.2422 53 30.2422Z" fill="#707789"/>
<path d="M53 63.7136C60.2577 63.7136 66.1412 57.8301 66.1412 50.5724C66.1412 43.3147 60.2577 37.4312 53 37.4312C45.7423 37.4312 39.8588 43.3147 39.8588 50.5724C39.8588 57.8301 45.7423 63.7136 53 63.7136Z" fill="#414952"/>
<path d="M53 37.4312C52.9898 37.4312 52.9797 37.4319 52.9695 37.4319V63.7128C52.9797 63.7128 52.9896 63.7136 53 63.7136C60.2576 63.7136 66.1412 57.83 66.1412 50.5724C66.1412 43.3147 60.2576 37.4312 53 37.4312Z" fill="#23272B"/>
<path d="M61.2721 25.7032H44.7279L46.317 21.0793H59.683L61.2721 25.7032Z" fill="#BEC3D2"/>
<path d="M59.683 21.0793H52.9695V25.7032H61.2721L59.683 21.0793Z" fill="#9196AA"/>
<path d="M72.3807 31.8965H83.9615V38.5141H72.3807V31.8965Z" fill="#9196AA"/>
<path d="M27.0754 69.1844C29.1839 69.1844 30.8932 67.4751 30.8932 65.3666C30.8932 63.2581 29.1839 61.5488 27.0754 61.5488C24.9669 61.5488 23.2576 63.2581 23.2576 65.3666C23.2576 67.4751 24.9669 69.1844 27.0754 69.1844Z" fill="#BEC3D2"/>
<path d="M46.101 46.4892C47.4716 46.4892 48.5826 45.3781 48.5826 44.0075C48.5826 42.6369 47.4716 41.5259 46.101 41.5259C44.7304 41.5259 43.6193 42.6369 43.6193 44.0075C43.6193 45.3781 44.7304 46.4892 46.101 46.4892Z" fill="white"/>
<path d="M49.234 53.6771C51.139 53.6771 52.6834 52.1328 52.6834 50.2277C52.6834 48.3227 51.139 46.7783 49.234 46.7783C47.3289 46.7783 45.7846 48.3227 45.7846 50.2277C45.7846 52.1328 47.3289 53.6771 49.234 53.6771Z" fill="white"/>
</svg>
