<svg width="103" height="102" viewBox="0 0 103 102" fill="none" xmlns="http://www.w3.org/2000/svg">
<mask id="mask0" mask-type="alpha" maskUnits="userSpaceOnUse" x="0" y="0" width="100" height="100">
<rect width="100" height="100" fill="#C4C4C4"/>
</mask>
<g mask="url(#mask0)">
</g>
<path d="M53 97.7142C78.2473 97.7142 98.7143 77.2472 98.7143 51.9999C98.7143 26.7526 78.2473 6.28564 53 6.28564C27.7527 6.28564 7.28572 26.7526 7.28572 51.9999C7.28572 77.2472 27.7527 97.7142 53 97.7142Z" fill="#4ABBA4"/>
<path opacity="0.1" d="M48.0749 19.5315H47.9391C40.7034 19.6529 36.532 23.96 36.532 29.7673C36.532 30.1957 36.5606 30.6387 36.6034 31.0814C36.7748 32.7386 37.0248 34.3458 37.2391 35.5815C37.2249 35.5886 37.2106 35.5815 37.1963 35.5815C36.4891 35.7243 36.1177 36.8744 36.3677 38.1601C36.532 39.0029 36.9177 39.6815 37.3606 40.0243L39.4891 42.1457C40.4748 44.0244 41.7177 45.7386 43.1463 47.0029V49.1672L41.3105 50.5958V50.5815L38.6248 51.8958C36.0034 52.9887 32.6463 54.6244 29.9748 56.6958C29.3606 57.1743 28.9106 57.8244 28.7034 58.5743C28.3534 59.8314 27.8177 62.2101 27.4034 66.1029C26.7391 72.4315 27.0748 76.9886 27.0748 76.9886L47.4537 97.3675C49.272 97.5876 51.119 97.714 52.9965 97.7142H53.0034C74.3375 97.7126 92.2555 83.0961 97.2965 63.3317L56.9891 23.0243C55.0391 20.91 52.0106 19.5958 48.0749 19.5315Z" fill="black"/>
<path d="M43.1442 44.3044H52.977V55.8632H43.1442V44.3044Z" fill="#D6B24E"/>
<path d="M68.7357 66.096C68.3261 62.2051 67.7907 59.8241 67.4387 58.5662C67.2296 57.819 66.7819 57.167 66.1685 56.6919C61.0042 52.6923 53.2924 50.3193 53.2924 50.3193L48.0705 55.8633V55.8665L42.8502 50.3241C42.8502 50.3241 35.1383 52.697 29.9741 56.6967C29.3607 57.1718 28.913 57.8238 28.7039 58.571C28.3519 59.8287 27.8165 62.2099 27.4068 66.1007C26.7403 72.4336 27.0736 76.9888 27.0736 76.9888L48.0705 76.9841H69.069C69.069 76.9841 69.4023 72.4288 68.7357 66.096Z" fill="#293B44"/>
<path d="M54.8288 50.8449C53.8759 50.4989 53.2925 50.3201 53.2925 50.3201L48.071 55.8647V55.8666L42.851 50.3239C42.851 50.3239 42.2676 50.5027 41.3147 50.8487C40.5935 51.1067 39.6612 51.4585 38.6116 51.9012L39.2422 59.7526L40.3463 61.612L40.6368 63.9943C43.1054 73.5461 48.072 76.983 48.072 76.983L48.0725 76.9836C48.1057 76.9605 53.0464 73.5102 55.5067 63.9905L55.7973 61.6081L56.9013 59.7487L57.5319 51.8974C56.4823 51.4547 55.55 51.1029 54.8288 50.8449Z" fill="#DBD8DD"/>
<path d="M49.1344 55.8633H46.8587L45.7208 57.8675L46.8587 60.9272H49.1344L50.2722 57.8675L49.1344 55.8633Z" fill="#DD584D"/>
<path d="M52.9993 49.1636L48.0705 55.8634L51.5181 59.9891L55.5047 51.1137L52.9993 49.1636Z" fill="#EDEDED"/>
<path d="M43.1442 49.1675L48.073 55.8673L44.6254 59.993L40.6388 51.1177L43.1442 49.1675Z" fill="#EDEDED"/>
<path d="M49.9238 75.2725L48.0725 76.9834L46.0741 74.6133L46.8334 60.6562H49.1597L49.9238 75.2725Z" fill="#DD584D"/>
<path d="M39.3769 62.0685L38.5178 63.8921C40.9864 73.4438 48.072 76.9829 48.072 76.9829C41.9153 67.8475 41.3616 53.0034 41.3148 50.8486C41.3089 50.6756 41.3089 50.5847 41.3089 50.5847L38.6117 51.9011L37.5533 60.7815L39.3769 62.0685Z" fill="#344D5B"/>
<path d="M56.7667 62.0648L57.6257 63.8884C55.1571 73.4402 48.071 76.9847 48.071 76.9847C54.2277 67.8493 54.7819 52.9998 54.8288 50.8449C54.8346 50.672 54.8346 50.5811 54.8346 50.5811L57.5319 51.8974L58.5903 60.7778L56.7667 62.0648Z" fill="#344D5B"/>
<path d="M59.1058 35.5839C58.3985 35.4469 57.623 36.3791 57.3738 37.6659C57.1246 38.9527 57.496 40.107 58.2034 40.244C58.9107 40.381 59.6862 39.4488 59.9354 38.1619C60.1846 36.8752 59.8132 35.7209 59.1058 35.5839Z" fill="#FEDA6F"/>
<path d="M37.1971 35.5839C37.9045 35.4469 38.6799 36.3791 38.9291 37.6659C39.1784 38.9527 38.8069 40.107 38.0996 40.244C37.3922 40.381 36.6167 39.4488 36.3675 38.1619C36.1183 36.8752 36.4897 35.7209 37.1971 35.5839Z" fill="#FEDA6F"/>
<path d="M58.5315 33.4352C58.5315 29.0401 56.078 26.937 52.417 25.841V26.3698L47.9423 22.634C42.3613 22.9887 37.059 27.708 37.059 33.4042C37.059 34.6332 37.2615 36.0111 37.6397 37.4293C39.0985 43.0215 43.2453 49.1674 48.1485 49.1674C53.1058 49.1674 57.3065 42.8323 58.7113 37.1728C59.049 35.8491 58.5315 34.5971 58.5315 33.4352Z" fill="#FCD462"/>
<path d="M48.0729 19.5348V19.5283C48.0506 19.5287 48.03 19.5313 48.0077 19.5317C47.9853 19.5313 47.9648 19.5287 47.9424 19.5283V19.5348C40.1677 19.6565 35.9346 24.6212 36.604 31.0812C36.9694 34.6068 37.6754 37.9139 37.6754 37.9139H38.3521C38.3521 37.9139 38.7468 34.1326 39.3671 30.0863C39.9427 26.3314 46.9354 27.3158 47.9424 27.4774V27.499C47.9424 27.499 47.9765 27.4932 48.0077 27.4879C48.0388 27.4932 48.0729 27.499 48.0729 27.499V27.4774C49.08 27.3158 56.0726 26.3314 56.6482 30.0863C57.2686 34.1326 57.6633 37.9139 57.6633 37.9139H58.3398C58.3398 37.9139 59.046 34.6068 59.4113 31.0812C60.0807 24.6212 55.8476 19.6565 48.0729 19.5348Z" fill="#344D5B"/>
<path d="M80.972 72.6201C80.8374 72.7689 80.6957 72.9177 80.554 73.0594C75.3672 78.2392 66.9351 78.2392 61.7484 73.0594C61.6066 72.9177 61.4649 72.7689 61.3303 72.6201C56.5687 67.405 56.7033 59.2919 61.7484 54.2538C66.9351 49.0671 75.3672 49.0671 80.554 54.2538C85.599 59.2919 85.7336 67.405 80.972 72.6201Z" fill="#F7BE56"/>
<path d="M78.8295 70.6642C78.7243 70.7805 78.6135 70.8969 78.5027 71.0077C74.4475 75.0574 67.8548 75.0574 63.7996 71.0077C63.6888 70.8969 63.578 70.7805 63.4728 70.6642C59.75 66.5868 59.8552 60.2436 63.7996 56.3046C67.8548 52.2494 74.4475 52.2494 78.5027 56.3046C82.4471 60.2436 82.5524 66.5868 78.8295 70.6642Z" fill="#FCD462"/>
<path d="M70.7386 71.4412V69.8941C69.9651 69.7967 69.3362 69.6233 68.852 69.3741C68.3679 69.1248 67.9496 68.7223 67.5972 68.1665C67.2448 67.6107 67.0399 66.9317 66.9826 66.1295L68.5383 65.8373C68.6586 66.6681 68.8707 67.2784 69.1743 67.668C69.6098 68.2181 70.1312 68.5246 70.7386 68.5876V63.6628C70.1026 63.5424 69.4522 63.296 68.7876 62.9236C68.2948 62.6486 67.9152 62.2675 67.6487 61.7805C67.3823 61.2934 67.2491 60.7405 67.2491 60.1217C67.2491 59.0215 67.6387 58.1305 68.418 57.4487C68.9394 56.9903 69.713 56.7095 70.7386 56.6064V55.8672H71.6497V56.6064C72.5493 56.6923 73.2627 56.9559 73.7898 57.3971C74.4659 57.9586 74.8728 58.7293 75.0103 59.7091L73.4116 59.9498C73.32 59.3424 73.1294 58.8768 72.8401 58.5531C72.5507 58.2294 72.1539 58.0159 71.6497 57.9128V62.3735C72.4289 62.5683 72.9446 62.7202 73.1968 62.8291C73.6781 63.0411 74.0706 63.2989 74.3743 63.6026C74.6779 63.9063 74.9114 64.2673 75.0747 64.6856C75.2381 65.1038 75.3197 65.5565 75.3197 66.0436C75.3197 67.1151 74.9788 68.0089 74.2969 68.7252C73.615 69.4414 72.7326 69.8253 71.6497 69.8769V71.4412H70.7386ZM70.7386 57.8956C70.137 57.9873 69.6628 58.2279 69.3162 58.6176C68.9695 59.0072 68.7962 59.4685 68.7962 60.0013C68.7962 60.5285 68.9437 60.9697 69.2388 61.325C69.5339 61.6802 70.0338 61.9638 70.7386 62.1758V57.8956ZM71.6497 68.5876C72.2513 68.5132 72.7484 68.2524 73.1409 67.8055C73.5334 67.3586 73.7296 66.8056 73.7296 66.1467C73.7296 65.5852 73.5907 65.1339 73.3128 64.793C73.0349 64.4521 72.4805 64.1469 71.6497 63.8776V68.5876Z" fill="#F7BE56"/>
</svg>
