<svg width="25" height="25" viewBox="0 0 25 25" fill="none" xmlns="http://www.w3.org/2000/svg">
<g clip-path="url(#clip0)">
<path d="M12.5 25.0001C19.4036 25.0001 25.0001 19.4036 25.0001 12.5C25.0001 5.59645 19.4036 0 12.5 0C5.59645 0 0 5.59645 0 12.5C0 19.4036 5.59645 25.0001 12.5 25.0001Z" fill="#D42428"/>
<path d="M21.3385 3.65991C26.22 8.5419 26.2205 16.4568 21.3385 21.3388C16.4569 26.2203 8.54163 26.2205 3.65964 21.3388L21.3385 3.65991Z" fill="#CC202D"/>
<path d="M24.7487 15.0036L18.5621 8.81714L11.2656 9.6479L6.85199 16.4808L15.0991 24.7276C19.9479 23.7019 23.7599 19.8664 24.7487 15.0036Z" fill="#BA202E"/>
<path d="M19.0413 10.0879C19.0413 9.04001 18.1924 8.19067 17.1451 8.19067H8.24866C7.20157 8.19067 6.35281 9.04022 6.35281 10.0879V15.1753C6.35281 16.2232 7.20172 17.0726 8.24866 17.0726H17.1449C18.1925 17.0726 19.0412 16.223 19.0412 15.1753V10.0879H19.0413ZM11.4278 14.7778V9.99948L15.0515 12.3888L11.4278 14.7778Z" fill="white"/>
</g>
<defs>
<clipPath id="clip0">
<rect width="25" height="25" fill="white"/>
</clipPath>
</defs>
</svg>
