<svg width="459" height="363" viewBox="0 0 459 363" fill="none" xmlns="http://www.w3.org/2000/svg">
<path fill-rule="evenodd" clip-rule="evenodd" d="M58.0129 17.0225H187.818C198.21 17.0225 206.713 25.5071 206.713 35.8796V344.143C206.713 354.513 198.21 363 187.818 363H58.0129C47.6197 363 39.1176 354.513 39.1176 344.143V35.8796C39.1176 25.5068 47.6197 17.0225 58.0129 17.0225Z" fill="#26315B"/>
<path fill-rule="evenodd" clip-rule="evenodd" d="M68.5535 17.0225H198.358C208.75 17.0225 217.254 25.5071 217.254 35.8796L217.254 344.143C217.254 354.513 208.75 363 198.358 363H68.5535C58.1603 363 49.6581 354.513 49.6581 344.143V35.8796C49.6581 25.5068 58.1601 17.0225 68.5535 17.0225Z" fill="#354E9D"/>
<path fill-rule="evenodd" clip-rule="evenodd" d="M65.472 63.9076H201.439C203.359 63.9076 204.929 65.4747 204.929 67.391V312.631C204.929 314.548 203.359 316.113 201.439 316.113H65.472C63.5521 316.113 61.9807 314.548 61.9807 312.631L61.9809 67.3907C61.9809 65.4745 63.5518 63.9079 65.472 63.9076Z" fill="#FEFEFE"/>
<path fill-rule="evenodd" clip-rule="evenodd" d="M133.455 355.107C141.827 355.107 148.655 348.294 148.655 339.941C148.655 331.587 141.826 324.773 133.455 324.773C125.084 324.773 118.257 331.587 118.257 339.941C118.257 348.294 125.084 355.107 133.455 355.107Z" fill="#26315B"/>
<path fill-rule="evenodd" clip-rule="evenodd" d="M115.124 48.7309C114.194 48.7309 113.44 47.9779 113.44 47.0496C113.44 46.1202 114.194 45.3685 115.124 45.3685L117.179 45.368C118.11 45.368 118.865 46.1205 118.865 47.0496C118.865 47.9779 118.11 48.7312 117.179 48.7312L115.124 48.7309ZM124.059 48.7309C123.128 48.7309 122.373 47.9779 122.373 47.0496C122.373 46.1202 123.128 45.3685 124.059 45.3685L151.787 45.368C152.718 45.368 153.472 46.1205 153.472 47.0496C153.472 47.9779 152.718 48.7312 151.787 48.7312L124.059 48.7309Z" fill="#26315B"/>
<path fill-rule="evenodd" clip-rule="evenodd" d="M73.7086 71.6969H116.526C118.911 71.6969 120.862 73.6434 120.862 76.0219V118.752C120.862 121.13 118.911 123.076 116.526 123.076H73.7086C71.3249 123.076 69.3741 121.13 69.3741 118.752L69.3744 76.0216C69.3744 73.6434 71.3246 71.6969 73.7086 71.6969Z" fill="#F77C57"/>
<path fill-rule="evenodd" clip-rule="evenodd" d="M118.771 122.449C118.116 122.846 117.346 123.076 116.526 123.076H111.107C109.277 120.526 106.766 117.429 105.321 115.574L105.239 116.964C105.194 117.653 105.149 118.317 105.104 118.956L105.076 120.25C105.076 120.25 105.135 121.468 105.204 123.076H84.8151C84.8842 121.468 84.9437 120.25 84.9437 120.25L84.9156 118.956C84.8711 118.317 84.8261 117.653 84.7808 116.965L84.7084 115.735C83.2195 117.636 80.8101 120.624 79.0566 123.076H73.7085C72.8697 123.076 72.0859 122.836 71.4211 122.421C74.346 117.477 81.1846 106.394 83.1975 105.23C83.5369 105.035 83.8194 104.877 84.0588 104.75L84.058 104.735L90.9668 101.368L91.4458 101.134L91.4437 101.129C91.9337 100.756 92.2115 100.328 92.2115 100.029L92.2117 99.7027C90.0881 98.7357 88.5319 96.721 88.2158 94.3301H88.215H88.211L88.207 94.3315H88.2038L88.1957 94.3323H88.1914L88.1756 94.3334H88.1727H88.1708L88.1684 94.3342H88.1665H88.1625H88.1563H88.1536L88.1413 94.3355H88.1373L88.1354 94.3363H88.1314H88.1282H88.1252H88.1223H88.1183H88.1161H88.1153H88.1132H88.1091H88.1051H88.103H88.1003H88.0971H88.0931L88.0898 94.3374H88.0872H88.0839H88.0799H88.077H88.073H88.0708H88.0681H88.0641L88.062 94.3382H88.0588H88.055H88.0518H88.0478L88.0386 94.3374H88.0346H88.0317H88.0226H88.0196H88.0167H88.0126C86.9001 94.317 86.0147 93.4003 86.0359 92.2882C86.0549 91.3331 86.7374 90.5466 87.636 90.3591V90.3588L87.6371 90.358H87.6392H87.64L87.6422 90.3567H87.6432H87.6443H87.6451L87.6465 90.3559H87.6481L87.6502 90.3548H87.6513L87.6524 90.3537H87.6532H87.655H87.6572H87.6582H87.6591L87.6604 90.3527H87.6623V90.3516H87.6633H87.6655H87.6663H87.6682H87.6695V90.3508H87.6703H87.6714H87.6722L87.6735 90.3497H87.6743H87.6754H87.6762H87.6775H87.6794H87.6813H87.6826L87.6834 90.3489H87.6843H87.6867H87.6885H87.6893L87.6904 90.3476H87.6926H87.6934L87.6944 90.3468H87.6955H87.6966H87.6985V90.3457H87.7006H87.7017H87.7036H87.7046H87.7065H87.7086H87.7097L87.7105 90.3449H87.7116H87.7124H87.7137L87.7156 90.3436H87.7178L87.7196 90.3425H87.7207H87.7229H87.7237H87.7255V90.3417H87.7269H87.7277H87.7288H87.7296H87.7317H87.7328L87.7336 90.3406H87.7346L87.736 90.3396L87.7336 90.3366L87.7328 90.3348L87.7309 90.3329C87.7309 90.3329 87.7309 88.4645 87.7309 86.8303C87.7309 85.6171 87.9845 84.0954 88.9949 82.7747C88.8619 82.1829 89.2013 81.3111 89.787 80.4654C92.0203 77.2413 95.1868 77.3157 96.3945 78.7549C97.1 78.3964 98.0099 78.1947 98.9581 78.1522C105.692 77.8542 105.967 84.6238 102.384 86.8276V86.8303C102.384 88.4643 102.384 90.3329 102.384 90.3329L102.382 90.3348V90.3366L102.379 90.3396H102.378H102.379L102.38 90.3406H102.382V90.3417H102.384H102.385H102.386H102.389L102.39 90.3425H102.392H102.394H102.395H102.396L102.397 90.3436H102.399H102.4V90.3449H102.402H102.404L102.405 90.3457H102.406H102.407H102.408H102.409H102.411H102.413H102.415H102.415L102.417 90.3468H102.419H102.42L102.423 90.3476H102.425H102.425V90.3489H102.428H102.429H102.43H102.43H102.431L102.433 90.3497H102.434H102.437H102.438H102.438H102.44H102.442H102.442L102.444 90.3508H102.444H102.446L102.447 90.3516H102.448H102.45H102.451H102.452H102.454V90.3527H102.455H102.456L102.457 90.3537H102.457H102.459H102.461H102.461L102.464 90.3548H102.466L102.467 90.3559H102.468H102.469L102.47 90.3567H102.471H102.472H102.474V90.358H102.475H102.476H102.478L102.479 90.3588C103.379 90.5466 104.061 91.3334 104.079 92.2882C104.1 93.4 103.215 94.3173 102.102 94.3374H102.099H102.096H102.093H102.083H102.079H102.077L102.067 94.3382H102.064H102.06H102.057L102.054 94.3374H102.051H102.048H102.045H102.041H102.037H102.035H102.032H102.028H102.026L102.023 94.3363H102.019H102.016H102.012H102.009H102.007H102.003H101.997H101.994H101.99H101.986H101.985H101.982L101.978 94.3355H101.975H101.969L101.964 94.3342H101.962H101.959H101.954H101.952H101.949H101.948L101.945 94.3334H101.942H101.94H101.937H101.933H101.929L101.924 94.3323H101.92H101.917L101.911 94.3315H101.908L101.905 94.3301H101.901H101.899C101.455 97.7001 98.5484 100.321 95.0568 100.321L95.0571 100.32C94.8584 100.32 94.6595 100.311 94.4652 100.296L94.4643 100.295L98.5798 101.129L99.0538 101.368L105.962 104.735L105.961 104.74C106.238 104.879 106.59 105.073 107.037 105.331C109.041 106.489 115.823 117.468 118.771 122.449Z" fill="#FEFEFE"/>
<path fill-rule="evenodd" clip-rule="evenodd" d="M70.4137 132.037H96.925C97.4968 132.037 97.9646 132.504 97.9646 133.076C97.9646 133.646 97.4968 134.113 96.925 134.113L70.4137 134.113C69.843 134.113 69.3741 133.646 69.3741 133.076H69.3744C69.3744 132.504 69.843 132.037 70.4137 132.037ZM149.849 136.28H103.167C102.597 136.28 102.128 136.746 102.128 137.317C102.128 137.888 102.597 138.356 103.167 138.356L149.849 138.355C150.421 138.355 150.89 137.889 150.89 137.317C150.89 136.745 150.421 136.281 149.849 136.281V136.28ZM70.4137 136.28H96.925C97.4968 136.28 97.9646 136.746 97.9646 137.317C97.9646 137.888 97.4968 138.356 96.925 138.356L70.4137 138.355C69.843 138.355 69.3741 137.889 69.3741 137.317H69.3744C69.3744 136.745 69.843 136.281 70.4137 136.281V136.28ZM149.849 140.522H103.167C102.597 140.522 102.128 140.989 102.128 141.56V141.56C102.128 142.129 102.597 142.597 103.167 142.597H149.849C150.421 142.597 150.89 142.129 150.89 141.56V141.56C150.89 140.988 150.421 140.522 149.849 140.522ZM70.4137 140.522H96.925C97.4968 140.522 97.9646 140.988 97.9646 141.56V141.56C97.9646 142.129 97.4968 142.597 96.925 142.597H70.4137C69.843 142.597 69.3741 142.129 69.3741 141.56L69.3744 141.56C69.3744 140.988 69.843 140.522 70.4137 140.522ZM149.849 144.764H103.167C102.597 144.764 102.128 145.23 102.128 145.801C102.128 146.372 102.597 146.84 103.167 146.84H149.849C150.421 146.84 150.89 146.372 150.89 145.801C150.89 145.23 150.421 144.764 149.849 144.764ZM70.4137 144.764H96.925C97.4968 144.764 97.9646 145.23 97.9646 145.801C97.9646 146.372 97.4968 146.84 96.925 146.84H70.4137C69.843 146.84 69.3741 146.372 69.3741 145.801H69.3744C69.3744 145.23 69.843 144.764 70.4137 144.764ZM149.849 149.005H103.167C102.597 149.005 102.128 149.474 102.128 150.044C102.128 150.614 102.597 151.081 103.167 151.081H149.849C150.421 151.081 150.89 150.614 150.89 150.044C150.89 149.472 150.421 149.005 149.849 149.005ZM70.4137 149.005H96.925C97.4968 149.005 97.9646 149.472 97.9646 150.044C97.9646 150.614 97.4968 151.081 96.925 151.081H70.4137C69.843 151.081 69.3741 150.614 69.3741 150.044H69.3744C69.3744 149.472 69.843 149.005 70.4137 149.005ZM149.849 153.248H103.167C102.597 153.248 102.128 153.714 102.128 154.285C102.128 154.856 102.597 155.324 103.167 155.324H149.849C150.421 155.324 150.89 154.856 150.89 154.285C150.89 153.714 150.421 153.248 149.849 153.248ZM70.4137 153.248H96.925C97.4968 153.248 97.9646 153.714 97.9646 154.285C97.9646 154.856 97.4968 155.324 96.925 155.324H70.4137C69.843 155.324 69.3741 154.856 69.3741 154.285H69.3744C69.3744 153.714 69.843 153.248 70.4137 153.248ZM149.849 157.488H103.167C102.597 157.488 102.128 157.957 102.128 158.527C102.128 159.099 102.597 159.566 103.167 159.566H149.849C150.421 159.566 150.89 159.099 150.89 158.527C150.89 157.957 150.421 157.489 149.849 157.489V157.488ZM70.4137 157.488H96.925C97.4968 157.488 97.9646 157.957 97.9646 158.527C97.9646 159.099 97.4968 159.566 96.925 159.566H70.4137C69.843 159.566 69.3741 159.099 69.3741 158.527H69.3744C69.3744 157.957 69.843 157.489 70.4137 157.489V157.488ZM149.849 161.731H103.167C102.597 161.731 102.128 162.199 102.128 162.77V162.77C102.128 163.339 102.597 163.808 103.167 163.808H149.849C150.421 163.808 150.89 163.339 150.89 162.77V162.77C150.89 162.198 150.421 161.731 149.849 161.731ZM70.4137 161.731H96.925C97.4968 161.731 97.9646 162.198 97.9646 162.77V162.77C97.9646 163.339 97.4968 163.808 96.925 163.808H70.4137C69.843 163.808 69.3741 163.339 69.3741 162.77L69.3744 162.77C69.3744 162.198 69.843 161.731 70.4137 161.731ZM149.849 165.974H103.167C102.597 165.974 102.128 166.441 102.128 167.011V167.012C102.128 167.582 102.597 168.05 103.167 168.05H149.849C150.421 168.05 150.89 167.583 150.89 167.012V167.011C150.89 166.44 150.421 165.974 149.849 165.974ZM70.4137 165.974H96.925C97.4968 165.974 97.9646 166.44 97.9646 167.011V167.012C97.9646 167.583 97.4968 168.05 96.925 168.05H70.4137C69.843 168.05 69.3741 167.583 69.3741 167.012L69.3744 167.011C69.3744 166.44 69.843 165.974 70.4137 165.974ZM149.849 170.216H103.167C102.597 170.216 102.128 170.684 102.128 171.253V171.254C102.128 171.824 102.597 172.292 103.167 172.292H149.849C150.421 172.292 150.89 171.824 150.89 171.254V171.253C150.89 170.682 150.421 170.216 149.849 170.216ZM70.4137 170.216H96.925C97.4968 170.216 97.9646 170.683 97.9646 171.253V171.254C97.9646 171.824 97.4968 172.292 96.925 172.292H70.4137C69.843 172.292 69.3741 171.824 69.3741 171.254L69.3744 171.253C69.3744 170.682 69.843 170.216 70.4137 170.216ZM149.849 174.458H103.167C102.597 174.458 102.128 174.925 102.128 175.496V175.496C102.128 176.065 102.597 176.533 103.167 176.533H149.849C150.421 176.533 150.89 176.066 150.89 175.496V175.496C150.89 174.925 150.421 174.458 149.849 174.458ZM70.4137 174.458H96.925C97.4968 174.458 97.9646 174.925 97.9646 175.496V175.496C97.9646 176.066 97.4968 176.533 96.925 176.533H70.4137C69.843 176.533 69.3741 176.066 69.3741 175.496L69.3744 175.496C69.3744 174.925 69.843 174.458 70.4137 174.458ZM149.849 178.699H103.167C102.597 178.699 102.128 179.167 102.128 179.738C102.128 180.309 102.597 180.776 103.167 180.776H149.849C150.421 180.776 150.89 180.31 150.89 179.738C150.89 179.167 150.421 178.699 149.849 178.699V178.699ZM70.4137 178.699H96.925C97.4968 178.699 97.9646 179.167 97.9646 179.738C97.9646 180.31 97.4968 180.776 96.925 180.776H70.4137C69.843 180.776 69.3741 180.31 69.3741 179.738H69.3744C69.3744 179.167 69.843 178.699 70.4137 178.699V178.699ZM149.849 182.942H103.167C102.597 182.942 102.128 183.409 102.128 183.981C102.128 184.55 102.597 185.019 103.167 185.019H149.849C150.421 185.019 150.89 184.55 150.89 183.981C150.89 183.409 150.421 182.942 149.849 182.942ZM70.4137 182.942H96.925C97.4968 182.942 97.9646 183.409 97.9646 183.981C97.9646 184.55 97.4968 185.019 96.925 185.019H70.4137C69.843 185.019 69.3741 184.55 69.3741 183.981H69.3744C69.3744 183.409 69.843 182.942 70.4137 182.942ZM149.849 187.185H103.167C102.597 187.185 102.128 187.651 102.128 188.223C102.128 188.792 102.597 189.261 103.167 189.261H149.849C150.421 189.261 150.89 188.793 150.89 188.223C150.89 187.651 150.421 187.185 149.849 187.185ZM70.4137 187.185H96.925C97.4968 187.185 97.9646 187.651 97.9646 188.223C97.9646 188.793 97.4968 189.261 96.925 189.261H70.4137C69.843 189.261 69.3741 188.793 69.3741 188.223H69.3744C69.3744 187.651 69.843 187.185 70.4137 187.185ZM149.849 191.426H103.167C102.597 191.426 102.128 191.894 102.128 192.465C102.128 193.034 102.597 193.503 103.167 193.503L149.849 193.503C150.421 193.503 150.89 193.036 150.89 192.465C150.89 191.892 150.421 191.426 149.849 191.426ZM70.4137 191.426H96.925C97.4968 191.426 97.9646 191.893 97.9646 192.465C97.9646 193.036 97.4968 193.503 96.925 193.503L70.4137 193.503C69.843 193.503 69.3741 193.036 69.3741 192.465H69.3744C69.3744 191.892 69.843 191.426 70.4137 191.426ZM149.849 195.668H103.167C102.597 195.668 102.128 196.137 102.128 196.706V196.706C102.128 197.277 102.597 197.744 103.167 197.744H149.849C150.421 197.744 150.89 197.277 150.89 196.706V196.706C150.89 196.137 150.421 195.668 149.849 195.668V195.668ZM70.4137 195.668H96.925C97.4968 195.668 97.9646 196.137 97.9646 196.706V196.706C97.9646 197.277 97.4968 197.744 96.925 197.744H70.4137C69.843 197.744 69.3741 197.277 69.3741 196.706L69.3744 196.706C69.3744 196.137 69.843 195.668 70.4137 195.668V195.668ZM149.849 199.91H103.167C102.597 199.91 102.128 200.378 102.128 200.949C102.128 201.519 102.597 201.986 103.167 201.986H149.849C150.421 201.986 150.89 201.521 150.89 200.949C150.89 200.378 150.421 199.91 149.849 199.91ZM70.4137 199.91H96.925C97.4968 199.91 97.9646 200.378 97.9646 200.949C97.9646 201.521 97.4968 201.986 96.925 201.986H70.4137C69.843 201.986 69.3741 201.521 69.3741 200.949H69.3744C69.3744 200.378 69.843 199.91 70.4137 199.91ZM149.849 204.152H103.167C102.597 204.152 102.128 204.621 102.128 205.19C102.128 205.76 102.597 206.229 103.167 206.229L149.849 206.229C150.421 206.229 150.89 205.763 150.89 205.19C150.89 204.62 150.421 204.153 149.849 204.153V204.152ZM70.4137 204.152H96.925C97.4968 204.152 97.9646 204.621 97.9646 205.19C97.9646 205.763 97.4968 206.229 96.925 206.229L70.4137 206.229C69.843 206.229 69.3741 205.763 69.3741 205.19H69.3744C69.3744 204.62 69.843 204.153 70.4137 204.153V204.152ZM149.849 208.395H103.167C102.597 208.395 102.128 208.862 102.128 209.432V209.432C102.128 210.004 102.597 210.47 103.167 210.47H149.849C150.421 210.47 150.89 210.004 150.89 209.432V209.432C150.89 208.862 150.421 208.395 149.849 208.395ZM70.4137 208.395H96.925C97.4968 208.395 97.9646 208.862 97.9646 209.432V209.432C97.9646 210.004 97.4968 210.47 96.925 210.47H70.4137C69.843 210.47 69.3741 210.004 69.3741 209.432L69.3744 209.432C69.3744 208.862 69.843 208.395 70.4137 208.395ZM149.849 212.637H103.167C102.597 212.637 102.128 213.104 102.128 213.674V213.675C102.128 214.246 102.597 214.712 103.167 214.712H149.849C150.421 214.712 150.89 214.246 150.89 213.675V213.674C150.89 213.104 150.421 212.637 149.849 212.637ZM70.4137 212.637H96.925C97.4968 212.637 97.9646 213.104 97.9646 213.674V213.675C97.9646 214.246 97.4968 214.712 96.925 214.712H70.4137C69.843 214.712 69.3741 214.246 69.3741 213.675L69.3744 213.674C69.3744 213.104 69.843 212.637 70.4137 212.637ZM149.849 216.878H103.167C102.597 216.878 102.128 217.346 102.128 217.915V217.916C102.128 218.488 102.597 218.955 103.167 218.955L149.849 218.954C150.421 218.954 150.89 218.489 150.89 217.916V217.915C150.89 217.346 150.421 216.878 149.849 216.878V216.878ZM70.4137 216.878H96.925C97.4968 216.878 97.9646 217.346 97.9646 217.915V217.916C97.9646 218.488 97.4968 218.955 96.925 218.955L70.4137 218.954C69.843 218.954 69.3741 218.489 69.3741 217.916L69.3744 217.915C69.3744 217.346 69.843 216.878 70.4137 216.878V216.878ZM149.849 221.12H103.167C102.597 221.12 102.128 221.588 102.128 222.158C102.128 222.73 102.597 223.195 103.167 223.195H149.849C150.421 223.195 150.89 222.73 150.89 222.158C150.89 221.588 150.421 221.12 149.849 221.12ZM70.4137 221.12H96.925C97.4968 221.12 97.9646 221.588 97.9646 222.158C97.9646 222.73 97.4968 223.195 96.925 223.195H70.4137C69.843 223.195 69.3741 222.73 69.3741 222.158H69.3744C69.3744 221.588 69.843 221.12 70.4137 221.12ZM149.849 225.362H103.167C102.597 225.362 102.128 225.83 102.128 226.4C102.128 226.972 102.597 227.438 103.167 227.438H149.849C150.421 227.438 150.89 226.972 150.89 226.4C150.89 225.83 150.421 225.362 149.849 225.362ZM70.4137 225.362H96.925C97.4968 225.362 97.9646 225.83 97.9646 226.4C97.9646 226.972 97.4968 227.438 96.925 227.438H70.4137C69.843 227.438 69.3741 226.972 69.3741 226.4H69.3744C69.3744 225.83 69.843 225.362 70.4137 225.362ZM149.849 229.605H103.167C102.597 229.605 102.128 230.071 102.128 230.642C102.128 231.214 102.597 231.679 103.167 231.679H149.849C150.421 231.679 150.89 231.215 150.89 230.642C150.89 230.071 150.421 229.605 149.849 229.605ZM70.4137 229.605H96.925C97.4968 229.605 97.9646 230.071 97.9646 230.642C97.9646 231.214 97.4968 231.679 96.925 231.679H70.4137C69.843 231.679 69.3741 231.215 69.3741 230.642H69.3744C69.3744 230.071 69.843 229.605 70.4137 229.605ZM149.849 132.037H103.167C102.597 132.037 102.128 132.504 102.128 133.076C102.128 133.646 102.597 134.113 103.167 134.113L149.849 134.113C150.421 134.113 150.89 133.646 150.89 133.076C150.89 132.504 150.421 132.037 149.849 132.037V132.037Z" fill="#B4DEF5"/>
<path fill-rule="evenodd" clip-rule="evenodd" d="M140.843 84.3634L143.649 103.574H137.841L140.647 84.3634H140.843ZM145.216 74.5947H136.405L128.51 120.18H135.427L136.927 109.825H144.562L146.063 120.18H153.111L145.216 74.5947Z" fill="#F77C57"/>
<path fill-rule="evenodd" clip-rule="evenodd" d="M165.437 272.852H193.55C195.388 272.852 196.894 274.354 196.894 276.189V299.963C196.894 301.8 195.388 303.3 193.55 303.3H165.437C163.598 303.3 162.093 301.8 162.093 299.963V276.189C162.093 274.354 163.598 272.852 165.437 272.852Z" fill="#B4DEF5"/>
<path fill-rule="evenodd" clip-rule="evenodd" d="M165.907 190.791H193.079C195.177 190.791 196.894 192.503 196.894 194.596V260.959C196.894 263.052 195.177 264.765 193.079 264.765H165.907C163.809 264.765 162.093 263.052 162.093 260.959V194.596C162.093 192.503 163.809 190.791 165.907 190.791Z" fill="#B4DEF5"/>
<path fill-rule="evenodd" clip-rule="evenodd" d="M76.4805 238.597H143.783C147.692 238.597 150.89 241.789 150.89 245.689V296.21C150.89 300.109 147.692 303.3 143.783 303.3H76.4805C72.5714 303.3 69.3741 300.109 69.3741 296.21L69.3744 245.689C69.3744 241.789 72.5714 238.597 76.4805 238.597Z" fill="#F4AF98"/>
<path fill-rule="evenodd" clip-rule="evenodd" d="M105.652 247.838C100.874 247.838 96.0938 249.66 92.4453 253.299C88.7987 256.938 86.9739 261.71 86.9739 266.479C86.9739 271.247 88.7987 276.019 92.4453 279.658C96.0938 283.298 100.873 285.118 105.652 285.118C110.431 285.118 115.212 283.298 118.858 279.658C122.506 276.019 124.33 271.247 124.33 266.479C124.33 261.71 122.506 256.938 118.858 253.299C115.212 249.66 110.431 247.838 105.652 247.838ZM90.1514 251.01C94.4309 246.739 100.042 244.602 105.652 244.602C111.262 244.602 116.874 246.739 121.154 251.01C125.434 255.28 127.574 260.879 127.574 266.479C127.574 271.572 125.802 276.667 122.26 280.761L126.689 285.18C127.461 285.09 128.266 285.34 128.859 285.931L135.763 292.823C136.789 293.846 136.789 295.505 135.763 296.528C134.739 297.551 133.075 297.551 132.051 296.528L125.145 289.637C124.553 289.047 124.302 288.241 124.394 287.471L119.964 283.05C115.861 286.586 110.756 288.355 105.652 288.355C100.042 288.355 94.4309 286.219 90.1514 281.948C85.8711 277.676 83.7308 272.077 83.7308 266.479C83.731 260.879 85.8705 255.28 90.1514 251.01V251.01Z" fill="#FEFEFE"/>
<path fill-rule="evenodd" clip-rule="evenodd" d="M396.507 156.078C412.53 140.602 422.853 160.259 420.262 179.99C417.806 198.699 398.363 262.886 399.979 289.891H393.792C380.427 255.263 376 175.887 396.507 156.078Z" fill="#00AD94"/>
<path fill-rule="evenodd" clip-rule="evenodd" d="M396.067 289.891C384.126 235.312 406.634 159.867 406.71 159.612C406.847 159.143 407.335 158.855 407.797 158.968C408.262 159.081 408.529 159.555 408.389 160.024C408.315 160.279 385.777 235.809 397.856 289.891H396.067Z" fill="#008587"/>
<path fill-rule="evenodd" clip-rule="evenodd" d="M432.336 190.18C448.818 181.695 451.917 200.209 444.88 215.526C439.046 228.219 414.219 265.767 404.325 289.891H396.165C397.178 256.553 412.88 200.196 432.336 190.18Z" fill="#008587"/>
<path fill-rule="evenodd" clip-rule="evenodd" d="M399.146 289.891C406.76 244.801 439.315 195.791 439.432 195.613C439.658 195.268 440.115 195.158 440.45 195.368C440.783 195.576 440.869 196.025 440.644 196.368C440.527 196.546 408.18 245.239 400.595 289.891H399.146Z" fill="#00AD94"/>
<path fill-rule="evenodd" clip-rule="evenodd" d="M363.412 211.581C348.205 204.799 344.841 222.337 351.045 236.171C355.241 245.531 370.866 269.502 381.172 289.891H394.122C391.27 259.045 379.133 218.589 363.412 211.581Z" fill="#5ABEB3"/>
<path fill-rule="evenodd" clip-rule="evenodd" d="M389.496 289.891C380.364 252.521 356.733 217.304 356.638 217.161C356.434 216.855 356.012 216.782 355.692 217.004C355.374 217.222 355.282 217.648 355.486 217.953C355.579 218.096 378.962 252.946 388.089 289.891H389.496Z" fill="#00AD94"/>
<path fill-rule="evenodd" clip-rule="evenodd" d="M175.161 289.313H290.473C295.215 289.313 299.523 291.249 302.645 294.367C305.77 297.483 307.709 301.784 307.709 306.514C307.709 311.248 305.769 315.547 302.645 318.664C299.523 321.781 295.215 323.715 290.473 323.715H175.161C170.419 323.715 166.109 321.781 162.988 318.664C159.864 315.547 157.926 311.248 157.926 306.514C157.926 301.784 159.864 297.483 162.988 294.367C166.109 291.249 170.419 289.313 175.161 289.313Z" fill="#F77C57"/>
<path fill-rule="evenodd" clip-rule="evenodd" d="M433.093 291.318H285.631C277.259 291.318 270.406 298.157 270.406 306.514V306.514C270.406 314.875 277.259 321.712 285.631 321.712H433.093V291.318Z" fill="#EEE6E6"/>
<path fill-rule="evenodd" clip-rule="evenodd" d="M433.093 289.313C434.2 289.313 435.099 290.21 435.099 291.318C435.099 292.425 434.2 293.322 433.093 293.322H285.631C281.999 293.322 278.693 294.808 276.297 297.2C273.901 299.59 272.412 302.889 272.412 306.514C272.413 310.142 273.901 313.44 276.297 315.833C278.693 318.222 281.998 319.708 285.631 319.708L433.093 319.708C434.2 319.708 435.099 320.606 435.099 321.712C435.099 322.819 434.2 323.715 433.093 323.715H285.631C280.891 323.715 276.58 321.781 273.457 318.664C270.335 315.547 268.395 311.248 268.395 306.514C268.395 301.784 270.335 297.483 273.457 294.367C276.58 291.249 280.891 289.313 285.631 289.313H433.093Z" fill="#F4AF98"/>
<path fill-rule="evenodd" clip-rule="evenodd" d="M180.472 306.514C180.472 301.784 182.411 297.483 185.533 294.367C188.655 291.249 192.966 289.313 197.709 289.313H182.716C177.975 289.313 173.665 291.249 170.543 294.367C167.42 297.483 165.481 301.784 165.481 306.514C165.481 311.248 167.42 315.547 170.543 318.664C173.665 321.781 177.974 323.715 182.716 323.715H197.709C192.966 323.715 188.655 321.781 185.533 318.664C182.411 315.547 180.472 311.248 180.472 306.514Z" fill="#F4AF98"/>
<path fill-rule="evenodd" clip-rule="evenodd" d="M202.192 306.514C202.192 301.784 204.131 297.483 207.253 294.367C210.376 291.249 214.687 289.313 219.428 289.313H204.437C199.696 289.313 195.385 291.249 192.262 294.367C189.141 297.483 187.201 301.784 187.201 306.514C187.201 311.248 189.141 315.547 192.262 318.664C195.385 321.781 199.696 323.715 204.437 323.715H219.428C214.687 323.715 210.376 321.781 207.253 318.664C204.131 315.547 202.192 311.248 202.192 306.514Z" fill="#F4AF98"/>
<path fill-rule="evenodd" clip-rule="evenodd" d="M396.607 94.2849C414.04 94.2849 428.259 80.0968 428.259 62.7006C428.259 45.303 414.039 31.1127 396.607 31.1127C379.175 31.1125 364.957 45.3033 364.957 62.7006C364.957 80.0968 379.175 94.2852 396.607 94.2849Z" fill="#F77C57"/>
<path fill-rule="evenodd" clip-rule="evenodd" d="M396.607 87.3275C410.199 87.3275 421.287 76.264 421.287 62.7005C421.287 49.1349 410.199 38.0735 396.607 38.0735C383.017 38.0732 371.93 49.1349 371.93 62.7005C371.93 76.264 383.016 87.3275 396.607 87.3275Z" fill="#FEFEFE"/>
<path fill-rule="evenodd" clip-rule="evenodd" d="M396.607 39.654C396.903 39.654 397.144 39.8953 397.144 40.1885L397.144 41.494C397.144 41.7883 396.903 42.0288 396.607 42.0288L396.607 42.0285C396.312 42.0285 396.072 41.7886 396.072 41.4943V40.1883C396.072 39.8951 396.312 39.654 396.607 39.654Z" fill="#354E9D"/>
<path fill-rule="evenodd" clip-rule="evenodd" d="M396.607 83.3702C396.903 83.3702 397.144 83.6112 397.144 83.9047L397.144 85.2102C397.144 85.5045 396.903 85.7468 396.607 85.7468L396.607 85.7463C396.312 85.7463 396.072 85.5047 396.072 85.2102V83.9044C396.072 83.6109 396.312 83.3702 396.607 83.3702Z" fill="#354E9D"/>
<path fill-rule="evenodd" clip-rule="evenodd" d="M408.153 42.7417L408.155 42.7428C408.41 42.8904 408.498 43.2179 408.352 43.4731L407.696 44.6028C407.55 44.8578 407.22 44.9463 406.966 44.7987L406.964 44.7978C406.707 44.6499 406.622 44.3217 406.769 44.0667L407.42 42.9375C407.569 42.6823 407.898 42.594 408.153 42.7417Z" fill="#354E9D"/>
<path fill-rule="evenodd" clip-rule="evenodd" d="M386.249 80.5999L386.252 80.601C386.507 80.7495 386.595 81.0769 386.448 81.3332L385.794 82.4629C385.645 82.7173 385.318 82.8045 385.062 82.6579L385.06 82.6569C384.803 82.5095 384.717 82.182 384.864 81.9268L385.519 80.7965C385.666 80.5413 385.996 80.4544 386.249 80.5999Z" fill="#354E9D"/>
<path fill-rule="evenodd" clip-rule="evenodd" d="M416.607 51.1776C416.756 51.4315 416.667 51.7624 416.411 51.908L415.278 52.5596C415.023 52.7073 414.695 52.6201 414.546 52.3649L414.546 52.363C414.398 52.1078 414.486 51.7804 414.742 51.6348L415.875 50.981C416.13 50.8331 416.458 50.9216 416.607 51.1776Z" fill="#354E9D"/>
<path fill-rule="evenodd" clip-rule="evenodd" d="M378.67 73.0348V73.0359C378.817 73.2908 378.729 73.6204 378.472 73.767L377.34 74.419C377.084 74.5664 376.756 74.4792 376.61 74.224L376.608 74.2221C376.46 73.9669 376.549 73.6394 376.803 73.4909L377.936 72.8387C378.192 72.6911 378.521 72.7796 378.67 73.0348Z" fill="#354E9D"/>
<path fill-rule="evenodd" clip-rule="evenodd" d="M419.701 62.6992V62.7006C419.701 62.9956 419.459 63.2348 419.164 63.2348L417.858 63.2345C417.562 63.2345 417.323 62.9956 417.323 62.7006V62.6992C417.323 62.4052 417.562 62.1639 417.858 62.1639H419.165C419.46 62.1639 419.701 62.4052 419.701 62.6992Z" fill="#354E9D"/>
<path fill-rule="evenodd" clip-rule="evenodd" d="M375.893 62.6992V62.7006C375.893 62.9956 375.651 63.2348 375.358 63.2348L374.051 63.2345C373.756 63.2345 373.514 62.9956 373.514 62.7006V62.6992C373.514 62.4052 373.756 62.1639 374.051 62.1639H375.358C375.651 62.1639 375.893 62.4052 375.893 62.6992Z" fill="#354E9D"/>
<path fill-rule="evenodd" clip-rule="evenodd" d="M416.607 74.2221V74.2239C416.458 74.4791 416.13 74.5656 415.874 74.419L414.742 73.767C414.487 73.6193 414.398 73.2908 414.545 73.0359L414.546 73.0348C414.695 72.7796 415.023 72.6913 415.278 72.839L416.411 73.4907C416.667 73.6391 416.753 73.9668 416.607 74.2221Z" fill="#354E9D"/>
<path fill-rule="evenodd" clip-rule="evenodd" d="M378.67 52.363V52.3649C378.522 52.6201 378.192 52.7073 377.936 52.5599L376.804 51.9077C376.549 51.7611 376.46 51.4321 376.608 51.1776H376.61C376.756 50.9216 377.084 50.8331 377.34 50.981L378.472 51.6338C378.729 51.7804 378.816 52.1078 378.67 52.363Z" fill="#354E9D"/>
<path fill-rule="evenodd" clip-rule="evenodd" d="M408.155 82.6569L408.153 82.658C407.898 82.8046 407.569 82.7174 407.42 82.4632L406.769 81.333C406.622 81.077 406.707 80.7476 406.964 80.601L406.966 80.6C407.22 80.4544 407.55 80.5417 407.696 80.7969L408.352 81.9266C408.498 82.1821 408.41 82.5095 408.155 82.6569Z" fill="#354E9D"/>
<path fill-rule="evenodd" clip-rule="evenodd" d="M386.252 44.7979L386.249 44.7987C385.994 44.9453 385.665 44.8581 385.516 44.6032L384.864 43.4732C384.718 43.2169 384.803 42.8905 385.06 42.742L385.062 42.7407C385.318 42.5941 385.645 42.6827 385.794 42.9368L386.448 44.0665C386.595 44.3215 386.507 44.65 386.252 44.7979Z" fill="#354E9D"/>
<path fill-rule="evenodd" clip-rule="evenodd" d="M397.367 62.7005C397.367 63.1191 397.027 63.4589 396.607 63.4589C396.187 63.4586 395.848 63.1191 395.848 62.7005L395.849 44.9303C395.849 44.5113 396.187 44.1718 396.607 44.1718C397.027 44.1718 397.367 44.5116 397.367 44.9305L397.367 62.7005Z" fill="#354E9D"/>
<path fill-rule="evenodd" clip-rule="evenodd" d="M396.208 63.3431C395.85 63.1221 395.74 62.6542 395.964 62.3006C396.186 61.945 396.653 61.8356 397.007 62.0566L407.946 68.8783C408.302 69.0985 408.41 69.5666 408.191 69.9211C407.969 70.2756 407.5 70.385 407.146 70.1643L396.208 63.3431Z" fill="#E95779"/>
<path fill-rule="evenodd" clip-rule="evenodd" d="M435.096 323.715H303.411C297.997 323.715 293.076 325.925 289.509 329.483C285.944 333.041 283.728 337.955 283.728 343.357C283.728 348.76 285.944 353.673 289.509 357.231C293.077 360.789 297.997 363 303.411 363H435.096C440.513 363 445.435 360.789 448.999 357.231C452.567 353.673 454.781 348.76 454.781 343.357C454.781 337.955 452.567 333.041 448.999 329.483C445.435 325.925 440.513 323.715 435.096 323.715Z" fill="#354E9D"/>
<path fill-rule="evenodd" clip-rule="evenodd" d="M140.539 326.004H308.94C318.503 326.004 326.33 333.812 326.33 343.357H326.33C326.33 352.903 318.503 360.713 308.94 360.713H140.539V326.004Z" fill="#FEFEFE"/>
<path fill-rule="evenodd" clip-rule="evenodd" d="M140.539 323.715C139.273 323.715 138.247 324.739 138.247 326.004C138.247 327.265 139.273 328.291 140.539 328.291H308.94C313.089 328.291 316.865 329.986 319.601 332.719C322.337 335.45 324.038 339.217 324.038 343.357C324.038 347.499 322.337 351.265 319.601 353.998C316.865 356.727 313.089 358.424 308.94 358.424H140.539C139.273 358.424 138.247 359.449 138.247 360.713C138.247 361.976 139.273 363 140.539 363H308.94C314.355 363 319.277 360.789 322.843 357.231C326.409 353.673 328.625 348.76 328.625 343.357C328.625 337.955 326.409 333.041 322.843 329.483C319.277 325.925 314.355 323.715 308.94 323.715H140.539Z" fill="#26315B"/>
<path fill-rule="evenodd" clip-rule="evenodd" d="M429.035 343.357C429.035 337.955 426.819 333.041 423.251 329.483C419.685 325.925 414.765 323.715 409.35 323.715H426.469C431.885 323.715 436.807 325.925 440.372 329.483C443.938 333.041 446.152 337.955 446.152 343.357C446.153 348.76 443.938 353.673 440.372 357.231C436.807 360.789 431.885 363 426.469 363H409.351C414.765 363 419.685 360.789 423.251 357.231C426.819 353.673 429.034 348.76 429.035 343.357Z" fill="#26315B"/>
<path fill-rule="evenodd" clip-rule="evenodd" d="M404.227 343.357C404.227 337.955 402.013 333.041 398.448 329.483C394.882 325.925 389.958 323.715 384.545 323.715H401.666C407.081 323.715 412.005 325.925 415.569 329.483C419.136 333.041 421.35 337.955 421.35 343.357C421.35 348.76 419.135 353.673 415.569 357.231C412.005 360.789 407.081 363 401.666 363H384.546C389.958 363 394.882 360.789 398.448 357.231C402.013 353.673 404.227 348.76 404.227 343.357Z" fill="#26315B"/>
<path fill-rule="evenodd" clip-rule="evenodd" d="M177.206 165.352H166.65C163.854 165.352 161.565 163.069 161.565 160.279V158.298V146.019V128.925V107.994V68.9819C161.565 66.1903 159.277 63.9079 156.481 63.9079L229.811 63.9076C232.606 63.9076 234.895 66.1906 234.895 68.9822L234.896 107.994V128.925V158.298C234.896 159.577 233.847 160.623 232.564 160.623H177.206V165.352Z" fill="#244079"/>
<path fill-rule="evenodd" clip-rule="evenodd" d="M232.365 72.1597H164.382C163.919 72.1597 163.539 72.5388 163.539 73.0008V74.4973C163.539 74.9582 163.919 75.3368 164.382 75.3368L232.365 75.3365C232.827 75.3365 233.207 74.9593 233.207 74.4973V73.0005C233.207 72.5388 232.827 72.16 232.365 72.1597Z" fill="#293565"/>
<path fill-rule="evenodd" clip-rule="evenodd" d="M166.078 78.5639H187.635C188.1 78.5639 188.48 78.9438 188.48 79.4068L188.48 79.4076C188.48 79.8707 188.1 80.2516 187.635 80.2516L166.078 80.2514C165.612 80.2514 165.232 79.871 165.232 79.4076V79.4068C165.232 78.9438 165.612 78.5641 166.078 78.5639ZM230.671 82.0133H192.711C192.247 82.0133 191.866 82.3929 191.866 82.857V82.8576C191.866 83.3201 192.247 83.7008 192.711 83.7008H230.671C231.134 83.7005 231.514 83.3209 231.514 82.8578V82.8567C231.514 82.3926 231.134 82.0133 230.671 82.0133ZM166.078 82.0133H187.635C188.1 82.0133 188.48 82.3929 188.48 82.857L188.48 82.8576C188.48 83.3209 188.1 83.7008 187.635 83.7008H166.078C165.612 83.7005 165.232 83.3209 165.232 82.8578V82.8567C165.232 82.3926 165.612 82.0133 166.078 82.0133ZM230.671 85.4621H192.711C192.247 85.4621 191.866 85.8412 191.866 86.3061C191.866 86.77 192.247 87.1496 192.711 87.1496H230.671C231.134 87.1496 231.514 86.7703 231.514 86.3061C231.514 85.8409 231.134 85.4624 230.671 85.4624V85.4621ZM166.078 85.4621H187.635C188.1 85.4621 188.48 85.8412 188.48 86.3061H188.48C188.48 86.77 188.1 87.1496 187.635 87.1496H166.078C165.612 87.1496 165.232 86.7703 165.232 86.3061C165.232 85.8409 165.612 85.4624 166.078 85.4624V85.4621ZM230.671 88.9123H192.711C192.247 88.9123 191.866 89.2922 191.866 89.755V89.7563C191.866 90.2205 192.247 90.599 192.711 90.599L230.671 90.5987C231.134 90.5987 231.514 90.2205 231.514 89.7563V89.755C231.514 89.2911 231.134 88.9123 230.671 88.9123ZM166.078 88.9123H187.635C188.1 88.9123 188.48 89.2914 188.48 89.755L188.48 89.7563C188.48 90.2205 188.1 90.599 187.635 90.599L166.078 90.5987C165.612 90.5987 165.232 90.2205 165.232 89.7563V89.755C165.232 89.2911 165.612 88.9123 166.078 88.9123ZM230.671 92.3606H192.711C192.247 92.3606 191.866 92.7402 191.866 93.2044V93.2052C191.866 93.6691 192.247 94.0492 192.711 94.0492L230.671 94.0489C231.134 94.0489 231.514 93.6693 231.514 93.2052V93.2041C231.514 92.74 231.134 92.3606 230.671 92.3606ZM166.078 92.3606H187.635C188.1 92.3606 188.48 92.7402 188.48 93.2044L188.48 93.2052C188.48 93.6691 188.1 94.0492 187.635 94.0492L166.078 94.0489C165.612 94.0489 165.232 93.6693 165.232 93.2052V93.2041C165.232 92.74 165.612 92.3606 166.078 92.3606ZM230.671 95.8108H192.711C192.247 95.8108 191.866 96.1904 191.866 96.6546C191.866 97.1184 192.247 97.4994 192.711 97.4994L230.671 97.4991C231.134 97.4991 231.514 97.1187 231.514 96.6546C231.514 96.1904 231.134 95.8108 230.671 95.8108ZM166.078 95.8108H187.635C188.1 95.8108 188.48 96.1904 188.48 96.6546H188.48C188.48 97.1184 188.1 97.4994 187.635 97.4994L166.078 97.4991C165.612 97.4991 165.232 97.1187 165.232 96.6546C165.232 96.1904 165.612 95.8108 166.078 95.8108ZM230.671 99.2599H192.711C192.247 99.2599 191.866 99.6395 191.866 100.103V100.103C191.866 100.568 192.247 100.947 192.711 100.947H230.671C231.134 100.947 231.514 100.568 231.514 100.104V100.103C231.514 99.6395 231.134 99.2599 230.671 99.2599ZM166.078 99.2599H187.635C188.1 99.2599 188.48 99.6395 188.48 100.103L188.48 100.103C188.48 100.568 188.1 100.947 187.635 100.947H166.078C165.612 100.947 165.232 100.568 165.232 100.104V100.103C165.232 99.6395 165.612 99.2599 166.078 99.2599ZM230.671 102.709H192.711C192.247 102.709 191.866 103.089 191.866 103.553C191.866 104.017 192.247 104.397 192.711 104.397H230.671C231.134 104.397 231.514 104.017 231.514 103.553C231.514 103.089 231.134 102.709 230.671 102.709V102.709ZM166.078 102.709H187.635C188.1 102.709 188.48 103.089 188.48 103.553H188.48C188.48 104.017 188.1 104.397 187.635 104.397H166.078C165.612 104.397 165.232 104.017 165.232 103.553C165.232 103.089 165.612 102.709 166.078 102.709V102.709ZM230.671 106.158H192.711C192.247 106.158 191.866 106.539 191.866 107.003C191.866 107.467 192.247 107.846 192.711 107.846H230.671C231.134 107.845 231.514 107.467 231.514 107.003C231.514 106.539 231.134 106.158 230.671 106.158V106.158ZM166.078 106.158H187.635C188.1 106.158 188.48 106.539 188.48 107.003H188.48C188.48 107.467 188.1 107.846 187.635 107.846H166.078C165.612 107.845 165.232 107.467 165.232 107.003C165.232 106.539 165.612 106.158 166.078 106.158V106.158ZM230.671 109.607H192.711C192.247 109.607 191.866 109.987 191.866 110.451V110.452C191.866 110.915 192.247 111.296 192.711 111.296H230.671C231.134 111.296 231.514 110.916 231.514 110.452V110.451C231.514 109.987 231.134 109.607 230.671 109.607ZM166.078 109.607H187.635C188.1 109.607 188.48 109.987 188.48 110.451L188.48 110.452C188.48 110.916 188.1 111.296 187.635 111.296H166.078C165.612 111.296 165.232 110.916 165.232 110.452V110.451C165.232 109.987 165.612 109.607 166.078 109.607ZM230.671 113.057H192.711C192.247 113.057 191.866 113.438 191.866 113.9V113.9C191.866 114.365 192.247 114.745 192.711 114.745H230.671C231.134 114.745 231.514 114.365 231.514 113.9V113.9C231.514 113.437 231.134 113.057 230.671 113.057V113.057ZM166.078 113.057H187.635C188.1 113.057 188.48 113.437 188.48 113.9L188.48 113.9C188.48 114.365 188.1 114.745 187.635 114.745H166.078C165.612 114.745 165.232 114.365 165.232 113.9V113.9C165.232 113.437 165.612 113.057 166.078 113.057V113.057ZM230.671 116.507H192.711C192.247 116.507 191.866 116.886 191.866 117.351V117.35C191.866 117.814 192.247 118.195 192.711 118.195H230.671C231.134 118.195 231.514 117.814 231.514 117.351V117.35C231.514 116.886 231.134 116.507 230.671 116.507ZM166.078 116.507H187.635C188.1 116.507 188.48 116.886 188.48 117.351L188.48 117.35C188.48 117.814 188.1 118.195 187.635 118.195H166.078C165.612 118.195 165.232 117.814 165.232 117.351V117.35C165.232 116.886 165.612 116.507 166.078 116.507ZM230.671 119.957H192.711C192.247 119.957 191.866 120.335 191.866 120.799C191.866 121.263 192.247 121.644 192.711 121.644H230.671C231.134 121.644 231.514 121.264 231.514 120.799C231.514 120.334 231.134 119.957 230.671 119.957V119.957ZM166.078 119.957H187.635C188.1 119.957 188.48 120.334 188.48 120.799H188.48C188.48 121.264 188.1 121.644 187.635 121.644H166.078C165.612 121.644 165.232 121.264 165.232 120.799C165.232 120.334 165.612 119.957 166.078 119.957V119.957ZM230.671 123.406H192.711C192.247 123.406 191.866 123.786 191.866 124.25C191.866 124.713 192.247 125.091 192.711 125.091L230.671 125.091C231.134 125.091 231.514 124.713 231.514 124.25C231.514 123.785 231.134 123.406 230.671 123.406V123.406ZM166.078 123.406H187.635C188.1 123.406 188.48 123.786 188.48 124.25H188.48C188.48 124.713 188.1 125.091 187.635 125.091L166.078 125.091C165.612 125.091 165.232 124.713 165.232 124.25C165.232 123.785 165.612 123.406 166.078 123.406V123.406ZM230.671 126.854H192.711C192.247 126.854 191.866 127.234 191.866 127.698V127.699C191.866 128.163 192.247 128.543 192.711 128.543L230.671 128.542C231.134 128.542 231.514 128.163 231.514 127.699V127.698C231.514 127.234 231.134 126.854 230.671 126.854ZM166.078 126.854H187.635C188.1 126.854 188.48 127.234 188.48 127.698L188.48 127.699C188.48 128.163 188.1 128.543 187.635 128.543L166.078 128.542C165.612 128.542 165.232 128.163 165.232 127.699V127.698C165.232 127.234 165.612 126.854 166.078 126.854ZM230.671 130.304H192.711C192.247 130.304 191.866 130.684 191.866 131.148V131.148C191.866 131.612 192.247 131.992 192.711 131.992L230.671 131.991C231.134 131.991 231.514 131.612 231.514 131.148V131.148C231.514 130.684 231.134 130.304 230.671 130.304ZM166.078 130.304H187.635C188.1 130.304 188.48 130.684 188.48 131.148L188.48 131.148C188.48 131.612 188.1 131.992 187.635 131.992L166.078 131.991C165.612 131.991 165.232 131.612 165.232 131.148V131.148C165.232 130.684 165.612 130.304 166.078 130.304ZM230.671 133.753H192.711C192.247 133.753 191.866 134.133 191.866 134.597V134.597C191.866 135.061 192.247 135.442 192.711 135.442L230.671 135.442C231.134 135.442 231.514 135.062 231.514 134.597V134.597C231.514 134.133 231.134 133.754 230.671 133.754V133.753ZM166.078 133.753H187.635C188.1 133.753 188.48 134.133 188.48 134.597L188.48 134.597C188.48 135.062 188.1 135.442 187.635 135.442L166.078 135.442C165.612 135.442 165.232 135.062 165.232 134.597V134.597C165.232 134.133 165.612 133.754 166.078 133.754V133.753ZM230.671 137.203H192.711C192.247 137.203 191.866 137.582 191.866 138.047C191.866 138.51 192.247 138.891 192.711 138.891H230.671C231.134 138.891 231.514 138.511 231.514 138.047C231.514 137.581 231.134 137.204 230.671 137.204V137.203ZM166.078 137.203H187.635C188.1 137.203 188.48 137.581 188.48 138.047H188.48C188.48 138.511 188.1 138.891 187.635 138.891H166.078C165.612 138.891 165.232 138.511 165.232 138.047C165.232 137.581 165.612 137.204 166.078 137.204V137.203ZM230.671 140.653H192.711C192.247 140.653 191.866 141.031 191.866 141.496C191.866 141.96 192.247 142.34 192.711 142.34L230.671 142.34C231.134 142.34 231.514 141.96 231.514 141.496C231.514 141.031 231.134 140.653 230.671 140.653ZM166.078 140.653H187.635C188.1 140.653 188.48 141.031 188.48 141.496H188.48C188.48 141.96 188.1 142.34 187.635 142.34L166.078 142.34C165.612 142.34 165.232 141.96 165.232 141.496C165.232 141.031 165.612 140.653 166.078 140.653ZM230.671 144.101H192.711C192.247 144.101 191.866 144.482 191.866 144.946C191.866 145.409 192.247 145.789 192.711 145.789H230.671C231.134 145.789 231.514 145.41 231.514 144.946C231.514 144.481 231.134 144.101 230.671 144.101ZM166.078 144.101H187.635C188.1 144.101 188.48 144.481 188.48 144.946H188.48C188.48 145.409 188.1 145.789 187.635 145.789H166.078C165.612 145.789 165.232 145.41 165.232 144.946C165.232 144.481 165.612 144.101 166.078 144.101ZM230.671 147.551H192.711C192.247 147.551 191.866 147.932 191.866 148.395V148.395C191.866 148.859 192.247 149.237 192.711 149.237H230.671C231.134 149.237 231.514 148.859 231.514 148.396V148.395C231.514 147.932 231.134 147.551 230.671 147.551ZM166.078 147.551H187.635C188.1 147.551 188.48 147.932 188.48 148.395L188.48 148.395C188.48 148.859 188.1 149.237 187.635 149.237H166.078C165.612 149.237 165.232 148.859 165.232 148.396V148.395C165.232 147.932 165.612 147.551 166.078 147.551ZM230.671 151H192.711C192.247 151 191.866 151.38 191.866 151.844C191.866 152.309 192.247 152.689 192.711 152.689H230.671C231.134 152.689 231.514 152.309 231.514 151.844C231.514 151.38 231.134 151 230.671 151ZM166.078 151H187.635C188.1 151 188.48 151.38 188.48 151.844H188.48C188.48 152.309 188.1 152.689 187.635 152.689H166.078C165.612 152.689 165.232 152.309 165.232 151.844C165.232 151.38 165.612 151 166.078 151ZM230.671 154.45H192.711C192.247 154.45 191.866 154.829 191.866 155.293V155.294C191.866 155.758 192.247 156.138 192.711 156.138H230.671C231.134 156.138 231.514 155.758 231.514 155.294V155.293C231.514 154.829 231.134 154.45 230.671 154.45ZM166.078 154.45H187.635C188.1 154.45 188.48 154.829 188.48 155.293L188.48 155.294C188.48 155.758 188.1 156.138 187.635 156.138H166.078C165.612 156.138 165.232 155.758 165.232 155.294V155.293C165.232 154.829 165.612 154.45 166.078 154.45ZM230.671 157.898H192.711C192.247 157.898 191.866 158.279 191.866 158.743C191.866 159.207 192.247 159.586 192.711 159.586L230.671 159.586C231.134 159.586 231.514 159.207 231.514 158.743C231.514 158.278 231.134 157.898 230.671 157.898ZM166.078 157.898H187.635C188.1 157.898 188.48 158.278 188.48 158.743H188.48C188.48 159.207 188.1 159.586 187.635 159.586L166.078 159.586C165.612 159.586 165.232 159.207 165.232 158.743C165.232 158.278 165.612 157.898 166.078 157.898ZM230.671 78.5639H192.711C192.247 78.5639 191.866 78.9438 191.866 79.4068V79.4076C191.866 79.8707 192.247 80.2516 192.711 80.2516L230.671 80.2514C231.134 80.2514 231.514 79.871 231.514 79.4076V79.4068C231.514 78.9438 231.134 78.5641 230.671 78.5641V78.5639Z" fill="#293565"/>
<path fill-rule="evenodd" clip-rule="evenodd" d="M171.734 160.279C171.734 163.069 169.447 165.352 166.65 165.352L174.064 165.352H200.5H203.254C204.536 165.352 205.585 164.307 205.585 163.027L221.986 160.279C221.986 138.982 221.986 134.072 221.986 112.775C221.986 109.984 224.273 107.701 227.07 107.701H176.818C174.022 107.701 171.734 109.984 171.734 112.775C171.734 134.072 171.734 138.982 171.734 160.279Z" fill="#2461AC"/>
<path fill-rule="evenodd" clip-rule="evenodd" d="M181.903 112.775C181.903 109.984 179.616 107.701 176.818 107.701H184.233H250.148H252.904C254.185 107.701 255.234 108.747 255.234 110.025V112.775C255.234 134.072 255.234 155.369 255.234 176.666C255.234 179.456 257.522 181.74 260.317 181.74H186.988C184.191 181.74 181.903 179.456 181.903 176.666C181.903 155.369 181.903 134.072 181.903 112.775Z" fill="#538ECB"/>
<path fill-rule="evenodd" clip-rule="evenodd" d="M192.072 116.724V137.652V176.666C192.072 179.456 189.784 181.74 186.988 181.74H260.317C263.113 181.74 265.402 179.456 265.402 176.666L265.402 137.652V116.724V89.3797C265.402 88.0988 264.352 87.0536 263.072 87.0536L194.402 87.053C193.12 87.053 192.072 88.1001 192.072 89.3797V116.724Z" fill="#B4DEF5"/>
<path fill-rule="evenodd" clip-rule="evenodd" d="M254.347 137.7H198.184C196.582 137.7 195.271 139.007 195.271 140.605V169.12C195.271 170.717 196.581 172.025 198.184 172.025H254.347C255.948 172.025 257.259 170.718 257.259 169.12V140.605C257.259 139.007 255.949 137.7 254.347 137.7Z" fill="#538ECB"/>
<path fill-rule="evenodd" clip-rule="evenodd" d="M265.402 95.0473V89.3797C265.402 88.0988 264.352 87.0536 263.072 87.0536L194.402 87.053C193.12 87.053 192.072 88.1001 192.072 89.3797V95.0473H265.402Z" fill="#538ECB"/>
<path fill-rule="evenodd" clip-rule="evenodd" d="M258.923 92.1977C259.555 92.1977 260.073 91.6838 260.073 91.0509C260.073 90.4179 259.555 89.9019 258.922 89.9019C258.289 89.9019 257.771 90.4182 257.771 91.0509C257.771 91.6836 258.289 92.198 258.923 92.1977Z" fill="#FEFEFE"/>
<path fill-rule="evenodd" clip-rule="evenodd" d="M254.716 92.1977C255.35 92.1977 255.866 91.6838 255.866 91.0509C255.866 90.4179 255.35 89.9019 254.716 89.9019C254.082 89.9019 253.566 90.4182 253.566 91.0509C253.566 91.6836 254.082 92.198 254.716 92.1977Z" fill="#FEFEFE"/>
<path fill-rule="evenodd" clip-rule="evenodd" d="M250.51 92.1977C251.142 92.1977 251.659 91.6838 251.659 91.0509C251.659 90.4179 251.142 89.9019 250.51 89.9019C249.875 89.9019 249.358 90.4182 249.358 91.0509C249.358 91.6836 249.875 92.198 250.51 92.1977Z" fill="#FEFEFE"/>
<path fill-rule="evenodd" clip-rule="evenodd" d="M259.569 107.784H252.006C251.781 107.784 251.598 107.968 251.598 108.191C251.598 108.416 251.781 108.598 252.006 108.598H259.569C259.793 108.598 259.978 108.416 259.978 108.191C259.978 107.968 259.793 107.784 259.569 107.784Z" fill="#FEFEFE"/>
<path fill-rule="evenodd" clip-rule="evenodd" d="M259.569 109.576H255.285C255.059 109.576 254.876 109.759 254.876 109.983C254.876 110.208 255.058 110.391 255.285 110.391L259.569 110.391C259.793 110.391 259.978 110.208 259.978 109.983C259.978 109.759 259.793 109.576 259.569 109.576Z" fill="#FEFEFE"/>
<path fill-rule="evenodd" clip-rule="evenodd" d="M259.569 113.187H252.006C251.781 113.187 251.598 113.369 251.598 113.593V113.592C251.598 113.818 251.781 114 252.006 114H259.569C259.793 114 259.978 113.818 259.978 113.593V113.592C259.978 113.369 259.793 113.187 259.569 113.187Z" fill="#FEFEFE"/>
<path fill-rule="evenodd" clip-rule="evenodd" d="M259.569 114.978H255.285C255.059 114.978 254.876 115.161 254.876 115.385C254.876 115.609 255.058 115.793 255.285 115.793L259.569 115.792C259.793 115.792 259.978 115.609 259.978 115.385C259.978 115.161 259.793 114.978 259.569 114.978Z" fill="#FEFEFE"/>
<path fill-rule="evenodd" clip-rule="evenodd" d="M253.83 114.978H253.203C252.979 114.978 252.795 115.161 252.795 115.385H252.795C252.795 115.609 252.979 115.793 253.203 115.793L253.83 115.792C254.054 115.792 254.237 115.609 254.237 115.385C254.237 115.161 254.054 114.978 253.83 114.978Z" fill="#FEFEFE"/>
<path fill-rule="evenodd" clip-rule="evenodd" d="M259.569 119.918H255.719C255.496 119.918 255.312 119.736 255.312 119.513H255.312C255.312 119.287 255.495 119.104 255.719 119.104H259.569C259.793 119.104 259.978 119.287 259.978 119.513C259.978 119.736 259.793 119.919 259.569 119.918Z" fill="#FEFEFE"/>
<path fill-rule="evenodd" clip-rule="evenodd" d="M259.569 118.128H254.25C254.026 118.128 253.843 117.945 253.843 117.72V117.72C253.843 117.496 254.026 117.313 254.25 117.313L259.569 117.313C259.793 117.313 259.978 117.496 259.978 117.72V117.72C259.978 117.945 259.793 118.128 259.569 118.128Z" fill="#FEFEFE"/>
<path fill-rule="evenodd" clip-rule="evenodd" d="M252.665 118.128H251.748C251.522 118.128 251.339 117.945 251.339 117.72V117.72C251.339 117.496 251.522 117.313 251.748 117.313L252.665 117.313C252.892 117.313 253.073 117.496 253.073 117.72V117.72C253.073 117.945 252.892 118.128 252.665 118.128Z" fill="#FEFEFE"/>
<path fill-rule="evenodd" clip-rule="evenodd" d="M259.569 121.792H257.025C256.802 121.792 256.619 121.61 256.619 121.384H256.619C256.619 121.16 256.802 120.977 257.025 120.977H259.569C259.793 120.977 259.978 121.16 259.978 121.384C259.978 121.61 259.793 121.792 259.569 121.792Z" fill="#FEFEFE"/>
<path fill-rule="evenodd" clip-rule="evenodd" d="M259.569 123.581H253.924C253.7 123.581 253.517 123.4 253.517 123.176V123.176C253.517 122.952 253.7 122.769 253.924 122.769H259.569C259.793 122.769 259.978 122.952 259.978 123.176V123.176C259.978 123.4 259.793 123.582 259.569 123.581Z" fill="#FEFEFE"/>
<path fill-rule="evenodd" clip-rule="evenodd" d="M241.125 108.707H198.513C198.289 108.707 198.106 108.89 198.106 109.114V109.114C198.106 109.338 198.289 109.52 198.513 109.52H241.125C241.351 109.52 241.534 109.338 241.534 109.114V109.114C241.534 108.89 241.351 108.707 241.125 108.707ZM241.125 112.182H198.513C198.289 112.182 198.106 112.365 198.106 112.59V112.589C198.106 112.812 198.289 112.995 198.513 112.995H241.125C241.351 112.995 241.534 112.812 241.534 112.59V112.589C241.534 112.364 241.351 112.182 241.125 112.182V112.182ZM241.125 115.657H198.513C198.289 115.657 198.106 115.839 198.106 116.064C198.106 116.289 198.289 116.47 198.513 116.47H241.125C241.351 116.47 241.534 116.289 241.534 116.064C241.534 115.839 241.351 115.657 241.125 115.657V115.657ZM241.125 119.131H198.513C198.289 119.131 198.106 119.313 198.106 119.538C198.106 119.763 198.289 119.945 198.513 119.945H241.125C241.351 119.945 241.534 119.763 241.534 119.538C241.534 119.313 241.351 119.131 241.125 119.131ZM241.125 122.606H198.513C198.289 122.606 198.106 122.788 198.106 123.013C198.106 123.237 198.289 123.42 198.513 123.42H241.125C241.351 123.42 241.534 123.237 241.534 123.013C241.534 122.788 241.351 122.606 241.125 122.606ZM241.125 126.081H198.513C198.289 126.081 198.106 126.263 198.106 126.487C198.106 126.712 198.289 126.894 198.513 126.894H241.125C241.351 126.894 241.534 126.712 241.534 126.487C241.534 126.263 241.351 126.081 241.125 126.081ZM241.125 129.555H198.513C198.289 129.555 198.106 129.739 198.106 129.963C198.106 130.186 198.289 130.37 198.513 130.37L241.125 130.369C241.351 130.369 241.534 130.187 241.534 129.963C241.534 129.739 241.351 129.555 241.125 129.555V129.555ZM241.125 105.233H198.513C198.289 105.233 198.106 105.416 198.106 105.639V105.639C198.106 105.864 198.289 106.045 198.513 106.045H241.125C241.351 106.045 241.534 105.864 241.534 105.639V105.639C241.534 105.416 241.351 105.233 241.125 105.233Z" fill="#26315B"/>
<path fill-rule="evenodd" clip-rule="evenodd" d="M244.867 106.318C245.241 106.318 245.547 106.014 245.547 105.64C245.547 105.266 245.241 104.961 244.867 104.961C244.491 104.961 244.186 105.266 244.186 105.64C244.187 106.013 244.491 106.318 244.867 106.318Z" fill="#253F8D"/>
<path fill-rule="evenodd" clip-rule="evenodd" d="M244.867 109.793C245.241 109.793 245.547 109.488 245.547 109.114C245.547 108.741 245.241 108.435 244.867 108.435C244.491 108.435 244.186 108.741 244.186 109.114C244.187 109.488 244.491 109.793 244.867 109.793Z" fill="#253F8D"/>
<path fill-rule="evenodd" clip-rule="evenodd" d="M244.867 113.268C245.241 113.268 245.547 112.962 245.547 112.59C245.547 112.216 245.241 111.909 244.867 111.909C244.491 111.909 244.186 112.216 244.186 112.59C244.187 112.962 244.491 113.269 244.867 113.268Z" fill="#253F8D"/>
<path fill-rule="evenodd" clip-rule="evenodd" d="M244.867 116.743C245.241 116.743 245.547 116.436 245.547 116.064C245.547 115.689 245.241 115.385 244.867 115.385C244.491 115.385 244.186 115.689 244.186 116.064C244.187 116.436 244.491 116.743 244.867 116.743Z" fill="#253F8D"/>
<path fill-rule="evenodd" clip-rule="evenodd" d="M244.867 120.217C245.241 120.217 245.547 119.913 245.547 119.538C245.547 119.164 245.241 118.86 244.867 118.86C244.491 118.86 244.186 119.164 244.186 119.538C244.187 119.913 244.491 120.217 244.867 120.217Z" fill="#253F8D"/>
<path fill-rule="evenodd" clip-rule="evenodd" d="M244.867 123.691C245.241 123.691 245.547 123.388 245.547 123.013C245.547 122.638 245.241 122.334 244.867 122.334C244.491 122.334 244.186 122.638 244.186 123.013C244.187 123.388 244.491 123.691 244.867 123.691Z" fill="#253F8D"/>
<path fill-rule="evenodd" clip-rule="evenodd" d="M244.867 127.166C245.241 127.166 245.547 126.862 245.547 126.487C245.547 126.115 245.241 125.809 244.867 125.809C244.491 125.808 244.186 126.115 244.186 126.487C244.187 126.862 244.491 127.167 244.867 127.166Z" fill="#253F8D"/>
<path fill-rule="evenodd" clip-rule="evenodd" d="M244.867 130.642C245.241 130.642 245.547 130.336 245.547 129.963C245.547 129.589 245.241 129.283 244.867 129.283C244.491 129.283 244.186 129.589 244.186 129.963C244.187 130.336 244.491 130.642 244.867 130.642Z" fill="#253F8D"/>
<path fill-rule="evenodd" clip-rule="evenodd" d="M244.73 99.2599H213.121C212.671 99.2599 212.305 99.6256 212.305 100.073H212.305C212.305 100.521 212.671 100.888 213.121 100.888H244.73C245.18 100.888 245.547 100.522 245.547 100.073C245.547 99.6256 245.18 99.2599 244.73 99.2599Z" fill="#FEFEFE"/>
<path fill-rule="evenodd" clip-rule="evenodd" d="M209.531 99.2599H198.922C198.472 99.2599 198.106 99.6256 198.106 100.073C198.106 100.521 198.472 100.888 198.922 100.888H209.531C209.979 100.888 210.346 100.522 210.346 100.073H210.347C210.347 99.6256 209.979 99.2599 209.531 99.2599Z" fill="#FEFEFE"/>
<path fill-rule="evenodd" clip-rule="evenodd" d="M255.788 105.375C257.624 105.375 259.12 103.882 259.12 102.049C259.121 100.217 257.624 98.7224 255.788 98.7224C253.952 98.7224 252.455 100.217 252.455 102.049C252.455 103.882 253.952 105.375 255.788 105.375Z" fill="#FEFEFE"/>
<path fill-rule="evenodd" clip-rule="evenodd" d="M255.788 99.6829C255.104 99.6826 254.549 100.236 254.549 100.919C254.549 101.601 255.104 102.155 255.788 102.155C256.472 102.155 257.025 101.601 257.025 100.919C257.025 100.236 256.471 99.6829 255.788 99.6829ZM254.063 104.231C254.537 104.604 255.135 104.827 255.788 104.827C256.439 104.827 257.038 104.604 257.512 104.231C257.482 103.31 256.718 102.566 255.788 102.566V102.565C254.857 102.565 254.093 103.31 254.063 104.231L254.063 104.231Z" fill="#E95779"/>
<path fill-rule="evenodd" clip-rule="evenodd" d="M256.819 135.593H200.656C199.054 135.593 197.743 136.901 197.743 138.499V167.013C197.743 168.611 199.054 169.919 200.656 169.919H256.819C258.421 169.919 259.732 168.611 259.732 167.014V138.499C259.732 136.9 258.421 135.593 256.819 135.593Z" fill="#FEFEFE"/>
<path fill-rule="evenodd" clip-rule="evenodd" d="M256.819 135.593H200.656C199.054 135.593 197.743 136.9 197.743 138.499V142.512C197.743 142.96 198.11 143.325 198.559 143.325H258.915C259.364 143.325 259.732 142.96 259.732 142.512V138.499C259.732 136.9 258.421 135.593 256.819 135.593Z" fill="#293565"/>
<path fill-rule="evenodd" clip-rule="evenodd" d="M239.275 155.053H242.799C243.131 155.053 243.402 155.325 243.402 155.657C243.402 155.989 243.131 156.261 242.798 156.261L239.275 156.261C238.942 156.261 238.669 155.989 238.669 155.657C238.669 155.325 238.942 155.053 239.275 155.053ZM255.019 160.877H251.497C251.164 160.877 250.89 161.149 250.89 161.481H250.89C250.89 161.814 251.164 162.084 251.497 162.084H255.019C255.352 162.084 255.624 161.814 255.624 161.481C255.624 161.149 255.352 160.877 255.019 160.877ZM249.377 149.231H248.818C248.484 149.231 248.213 149.502 248.213 149.834C248.213 150.166 248.484 150.437 248.818 150.437H249.377C249.709 150.437 249.982 150.166 249.982 149.834C249.982 149.501 249.709 149.231 249.377 149.231Z" fill="#ED7C6F"/>
<path fill-rule="evenodd" clip-rule="evenodd" d="M239.275 149.231H246.309C246.64 149.231 246.913 149.502 246.913 149.834C246.913 150.166 246.64 150.437 246.309 150.437H239.275C238.942 150.437 238.671 150.166 238.671 149.834C238.671 149.501 238.942 149.231 239.275 149.231Z" fill="#26315B"/>
<path fill-rule="evenodd" clip-rule="evenodd" d="M255.019 149.231H251.497C251.164 149.231 250.89 149.502 250.89 149.834H250.89C250.89 150.166 251.164 150.437 251.497 150.437H255.019C255.352 150.437 255.624 150.166 255.624 149.834C255.624 149.501 255.352 149.231 255.019 149.231Z" fill="#26315B"/>
<path fill-rule="evenodd" clip-rule="evenodd" d="M255.019 152.39H239.275C238.942 152.39 238.669 152.661 238.669 152.994C238.669 153.326 238.942 153.597 239.275 153.597H255.019C255.352 153.597 255.623 153.326 255.623 152.994H255.623C255.623 152.661 255.352 152.39 255.019 152.39Z" fill="#26315B"/>
<path fill-rule="evenodd" clip-rule="evenodd" d="M255.019 155.053H247.986C247.654 155.053 247.381 155.325 247.381 155.657C247.381 155.989 247.654 156.261 247.986 156.261L255.019 156.261C255.352 156.261 255.623 155.989 255.623 155.657H255.623C255.623 155.325 255.352 155.053 255.019 155.053Z" fill="#26315B"/>
<path fill-rule="evenodd" clip-rule="evenodd" d="M244.918 155.053H245.477C245.809 155.053 246.081 155.325 246.081 155.657C246.081 155.989 245.809 156.261 245.477 156.261L244.918 156.261C244.586 156.261 244.313 155.989 244.313 155.657C244.313 155.325 244.586 155.053 244.918 155.053Z" fill="#26315B"/>
<path fill-rule="evenodd" clip-rule="evenodd" d="M255.019 158.214H239.275C238.942 158.214 238.669 158.484 238.669 158.817C238.669 159.149 238.942 159.42 239.275 159.42H255.019C255.352 159.42 255.623 159.149 255.623 158.817H255.623C255.623 158.484 255.352 158.214 255.019 158.214Z" fill="#26315B"/>
<path fill-rule="evenodd" clip-rule="evenodd" d="M239.275 160.877H246.309C246.64 160.877 246.913 161.149 246.913 161.481C246.913 161.812 246.64 162.084 246.309 162.084H239.275C238.942 162.084 238.671 161.813 238.671 161.481C238.671 161.149 238.942 160.877 239.275 160.877Z" fill="#26315B"/>
<path fill-rule="evenodd" clip-rule="evenodd" d="M249.376 160.877H248.818C248.484 160.877 248.213 161.149 248.213 161.481C248.213 161.812 248.484 162.084 248.818 162.084H249.376C249.709 162.084 249.982 161.813 249.982 161.481C249.982 161.149 249.709 160.877 249.376 160.877Z" fill="#26315B"/>
<path fill-rule="evenodd" clip-rule="evenodd" d="M255.019 164.037H239.275C238.942 164.037 238.669 164.308 238.669 164.641C238.669 164.971 238.942 165.244 239.275 165.244L255.019 165.243C255.352 165.243 255.623 164.972 255.623 164.641H255.623C255.623 164.307 255.352 164.037 255.019 164.037Z" fill="#26315B"/>
<path fill-rule="evenodd" clip-rule="evenodd" d="M255.019 146.566H239.275C238.942 146.566 238.669 146.839 238.669 147.17C238.669 147.502 238.942 147.773 239.275 147.773H255.019C255.352 147.773 255.623 147.502 255.623 147.17H255.623C255.623 146.839 255.352 146.567 255.019 146.566Z" fill="#26315B"/>
<path fill-rule="evenodd" clip-rule="evenodd" d="M219.933 149.231H218.238C217.905 149.231 217.633 149.502 217.633 149.834H217.633C217.633 150.166 217.905 150.437 218.238 150.437H219.933C220.265 150.437 220.538 150.166 220.538 149.834C220.538 149.501 220.265 149.231 219.933 149.231Z" fill="#26315B"/>
<path fill-rule="evenodd" clip-rule="evenodd" d="M202.565 155.053H209.128C209.462 155.053 209.734 155.325 209.734 155.657H209.734C209.734 155.989 209.461 156.261 209.128 156.261L202.565 156.261C202.232 156.261 201.961 155.989 201.961 155.657H201.961C201.961 155.325 202.232 155.053 202.565 155.053Z" fill="#26315B"/>
<path fill-rule="evenodd" clip-rule="evenodd" d="M229.2 160.877H222.638C222.304 160.877 222.032 161.149 222.032 161.481H222.033C222.033 161.812 222.304 162.084 222.638 162.084H229.2C229.534 162.084 229.806 161.813 229.806 161.481H229.806C229.806 161.149 229.534 160.877 229.2 160.877Z" fill="#26315B"/>
<path fill-rule="evenodd" clip-rule="evenodd" d="M229.2 164.037H202.565C202.232 164.037 201.961 164.308 201.961 164.641H201.961C201.961 164.971 202.232 165.244 202.565 165.244L229.2 165.243C229.532 165.243 229.806 164.972 229.806 164.641H229.806C229.806 164.307 229.532 164.037 229.2 164.037Z" fill="#26315B"/>
<path fill-rule="evenodd" clip-rule="evenodd" d="M202.566 149.231H214.894C215.226 149.231 215.498 149.502 215.498 149.834C215.498 150.166 215.226 150.437 214.894 150.437H202.566C202.233 150.437 201.961 150.166 201.961 149.834H201.961C201.961 149.501 202.233 149.231 202.566 149.231Z" fill="#ED7C6F"/>
<path fill-rule="evenodd" clip-rule="evenodd" d="M229.2 149.231H222.638C222.304 149.231 222.032 149.502 222.032 149.834H222.033C222.033 150.166 222.304 150.437 222.638 150.437H229.2C229.534 150.437 229.806 150.166 229.806 149.834H229.806C229.806 149.501 229.534 149.231 229.2 149.231Z" fill="#ED7C6F"/>
<path fill-rule="evenodd" clip-rule="evenodd" d="M229.2 152.39H202.565C202.232 152.39 201.961 152.661 201.961 152.994H201.961C201.961 153.326 202.232 153.597 202.565 153.597H229.2C229.532 153.597 229.806 153.326 229.806 152.994H229.806C229.806 152.661 229.532 152.39 229.2 152.39Z" fill="#ED7C6F"/>
<path fill-rule="evenodd" clip-rule="evenodd" d="M229.2 155.053H216.872C216.54 155.053 216.267 155.325 216.267 155.657C216.267 155.989 216.54 156.261 216.872 156.261L229.2 156.261C229.532 156.261 229.806 155.989 229.806 155.657H229.806C229.806 155.325 229.532 155.053 229.2 155.053Z" fill="#ED7C6F"/>
<path fill-rule="evenodd" clip-rule="evenodd" d="M211.833 155.053H213.528C213.86 155.053 214.133 155.325 214.133 155.657C214.133 155.989 213.86 156.261 213.528 156.261L211.833 156.261C211.501 156.261 211.228 155.989 211.228 155.657C211.228 155.325 211.501 155.053 211.833 155.053Z" fill="#ED7C6F"/>
<path fill-rule="evenodd" clip-rule="evenodd" d="M229.2 158.214H202.565C202.232 158.214 201.961 158.484 201.961 158.817H201.961C201.961 159.149 202.232 159.42 202.565 159.42H229.2C229.532 159.42 229.806 159.149 229.806 158.817H229.806C229.806 158.484 229.532 158.214 229.2 158.214Z" fill="#ED7C6F"/>
<path fill-rule="evenodd" clip-rule="evenodd" d="M202.566 160.877H214.894C215.226 160.877 215.498 161.149 215.498 161.481C215.498 161.812 215.226 162.084 214.894 162.084H202.566C202.233 162.084 201.961 161.813 201.961 161.481H201.961C201.961 161.149 202.233 160.877 202.566 160.877Z" fill="#ED7C6F"/>
<path fill-rule="evenodd" clip-rule="evenodd" d="M219.933 160.877H218.238C217.905 160.877 217.633 161.149 217.633 161.481H217.633C217.633 161.812 217.905 162.084 218.238 162.084H219.933C220.265 162.084 220.538 161.813 220.538 161.481C220.538 161.149 220.265 160.877 219.933 160.877Z" fill="#ED7C6F"/>
<path fill-rule="evenodd" clip-rule="evenodd" d="M229.2 146.566H202.565C202.232 146.566 201.961 146.839 201.961 147.17H201.961C201.961 147.502 202.232 147.773 202.565 147.773H229.2C229.532 147.773 229.806 147.502 229.806 147.17H229.806C229.806 146.839 229.532 146.567 229.2 146.566Z" fill="#ED7C6F"/>
<path fill-rule="evenodd" clip-rule="evenodd" d="M212.691 138.062C211.919 138.062 211.292 138.688 211.292 139.459C211.293 140.231 211.919 140.855 212.691 140.855C213.463 140.855 214.089 140.231 214.089 139.459C214.089 138.688 213.462 138.062 212.691 138.062Z" fill="#FEFEFE"/>
<path fill-rule="evenodd" clip-rule="evenodd" d="M207.648 138.062C206.876 138.062 206.25 138.688 206.25 139.459C206.25 140.231 206.876 140.855 207.648 140.855C208.421 140.855 209.047 140.231 209.047 139.459C209.047 138.688 208.421 138.062 207.648 138.062Z" fill="#FEFEFE"/>
<path fill-rule="evenodd" clip-rule="evenodd" d="M202.606 138.062C201.834 138.062 201.208 138.688 201.208 139.459C201.208 140.231 201.834 140.855 202.606 140.855C203.379 140.855 204.004 140.231 204.004 139.459C204.004 138.688 203.379 138.062 202.606 138.062Z" fill="#FEFEFE"/>
<path fill-rule="evenodd" clip-rule="evenodd" d="M201.332 357.63H230.116C231.509 357.63 232.647 356.495 232.647 355.105L232.647 305.719C232.647 304.331 231.508 303.196 230.116 303.196H201.332C199.94 303.196 198.802 304.331 198.802 305.719V355.105C198.802 356.495 199.94 357.63 201.332 357.63Z" fill="#E3E2E6"/>
<path fill-rule="evenodd" clip-rule="evenodd" d="M230.752 357.63H254.036C255.208 357.63 256.166 356.676 256.166 355.508V305.32C256.166 304.151 255.207 303.196 254.036 303.196H230.752C229.58 303.196 228.621 304.151 228.621 305.32V355.508C228.621 356.676 229.58 357.63 230.752 357.63Z" fill="#FEFEFE"/>
<path fill-rule="evenodd" clip-rule="evenodd" d="M193.042 323.869H222.862C222.862 318.537 228.621 317.947 228.621 317.947H198.802C198.802 317.947 193.042 318.537 193.042 323.869Z" fill="#FEFEFE"/>
<path fill-rule="evenodd" clip-rule="evenodd" d="M198.802 348.871H229.663C230.578 348.871 231.329 349.619 231.329 350.533L231.33 361.337C231.33 362.251 230.578 363 229.663 363H198.802C197.886 363 197.135 362.252 197.135 361.337V350.533C197.135 349.619 197.886 348.871 198.802 348.871Z" fill="#F77C57"/>
<path fill-rule="evenodd" clip-rule="evenodd" d="M228.69 348.87H235.456H235.458H235.461H235.469C235.622 348.871 237.273 348.935 238.199 350.948C239.171 353.061 239.066 355.173 241.947 355.173C244.675 355.173 240.738 355.173 243.187 355.173C246.066 355.173 245.986 353.012 246.935 350.948C247.883 348.886 249.512 348.871 249.664 348.87H249.671H249.674H249.676H256.095C257.011 348.87 257.761 349.619 257.761 350.533L257.761 361.337C257.761 362.251 257.011 363 256.095 363H228.69C227.775 363 227.027 362.252 227.027 361.337V350.533C227.027 349.619 227.774 348.87 228.69 348.87Z" fill="#F4AF98"/>
<path fill-rule="evenodd" clip-rule="evenodd" d="M193.042 342.518H222.862C222.862 337.185 228.621 336.597 228.621 336.597H198.802C198.802 336.597 193.042 337.185 193.042 342.518Z" fill="#FEFEFE"/>
<path fill-rule="evenodd" clip-rule="evenodd" d="M261.013 333.627H233.893C233.893 328.294 228.621 327.707 228.621 327.707H255.742C255.742 327.707 261.013 328.294 261.013 333.627Z" fill="#AEABBA"/>
<path fill-rule="evenodd" clip-rule="evenodd" d="M232.938 309.109H253.724C254.228 309.109 254.642 309.52 254.642 310.022C254.642 310.526 254.228 310.938 253.724 310.938H232.938C232.434 310.938 232.021 310.526 232.021 310.022C232.021 309.52 232.433 309.109 232.938 309.109Z" fill="#E3E2E6"/>
<path fill-rule="evenodd" clip-rule="evenodd" d="M232.938 319.187H253.724C254.228 319.187 254.642 319.597 254.642 320.101C254.642 320.604 254.228 321.015 253.724 321.015H232.938C232.434 321.015 232.021 320.604 232.021 320.101C232.021 319.596 232.433 319.187 232.938 319.187Z" fill="#E3E2E6"/>
<path fill-rule="evenodd" clip-rule="evenodd" d="M232.938 340.227H253.724C254.228 340.227 254.642 340.638 254.642 341.141C254.642 341.644 254.228 342.055 253.724 342.055H232.938C232.434 342.055 232.021 341.644 232.021 341.141C232.021 340.638 232.433 340.227 232.938 340.227Z" fill="#E3E2E6"/>
<path fill-rule="evenodd" clip-rule="evenodd" d="M203.208 308.368H223.289C223.793 308.368 224.205 308.779 224.205 309.282H224.205C224.205 309.784 223.793 310.196 223.289 310.196H203.208C202.704 310.196 202.292 309.784 202.292 309.282C202.292 308.779 202.704 308.368 203.208 308.368Z" fill="#AEABBA"/>
<path fill-rule="evenodd" clip-rule="evenodd" d="M203.208 331.065H223.289C223.793 331.065 224.205 331.476 224.205 331.979H224.205C224.205 332.481 223.793 332.893 223.289 332.893L203.208 332.893C202.704 332.893 202.292 332.481 202.292 331.979C202.292 331.476 202.704 331.065 203.208 331.065Z" fill="#AEABBA"/>
<path fill-rule="evenodd" clip-rule="evenodd" d="M203.208 345.586H223.289C223.793 345.586 224.205 345.997 224.205 346.5H224.205C224.205 347.004 223.793 347.416 223.289 347.416H203.208C202.704 347.416 202.292 347.004 202.292 346.5C202.292 345.997 202.704 345.586 203.208 345.586Z" fill="#AEABBA"/>
<path fill-rule="evenodd" clip-rule="evenodd" d="M54.2138 200.803C38.9854 185.328 27.6561 204.985 29.2369 224.718C30.7373 243.424 46.8967 307.612 43.9005 334.616H50.0881C65.2235 299.988 73.7102 220.615 54.2138 200.803Z" fill="#00AD94"/>
<path fill-rule="evenodd" clip-rule="evenodd" d="M47.8123 334.616C62.5445 280.038 43.8949 204.595 43.833 204.337C43.7185 203.869 43.2454 203.582 42.776 203.695C42.3061 203.807 42.0184 204.28 42.1315 204.749C42.1935 205.005 60.8671 280.535 46.0226 334.616H47.8123Z" fill="#008587"/>
<path fill-rule="evenodd" clip-rule="evenodd" d="M16.6429 234.905C0.594438 226.421 -3.45292 244.936 2.80363 260.252C7.98976 272.945 30.8952 310.492 39.5561 334.616H47.7136C48.4073 301.277 35.587 244.923 16.6429 234.905Z" fill="#008587"/>
<path fill-rule="evenodd" clip-rule="evenodd" d="M44.7334 334.616C39.4248 289.528 9.37599 240.516 9.2685 240.339C9.05913 239.995 8.60957 239.884 8.2643 240.093C7.91902 240.301 7.80911 240.751 8.01874 241.095C8.12597 241.273 37.9812 289.966 43.2837 334.616H44.7334Z" fill="#00AD94"/>
<path fill-rule="evenodd" clip-rule="evenodd" d="M84.4717 256.306C100.026 249.526 102.492 267.063 95.5812 280.897C90.9062 290.259 74.0557 314.228 62.7095 334.616H49.7584C54.1867 303.77 68.3943 263.316 84.4717 256.306Z" fill="#5ABEB3"/>
<path fill-rule="evenodd" clip-rule="evenodd" d="M54.3829 334.616C65.4259 297.247 90.8588 262.029 90.9604 261.887C91.181 261.582 91.6078 261.509 91.9137 261.729C92.2206 261.947 92.2922 262.374 92.0729 262.68C91.9721 262.82 66.8076 297.671 55.7903 334.616H54.3829Z" fill="#00AD94"/>
<path fill-rule="evenodd" clip-rule="evenodd" d="M29.83 322.278H75.4023C76.7657 322.278 77.8801 323.39 77.8801 324.752V335.979C77.8801 337.341 76.7655 338.453 75.4023 338.453H29.83C28.4649 338.453 27.3508 337.341 27.3508 335.979V324.752C27.3508 323.39 28.4649 322.278 29.83 322.278Z" fill="#F77C57"/>
<path fill-rule="evenodd" clip-rule="evenodd" d="M37.6464 331.411H67.5848L75.4012 338.453L69.0163 363H52.6148H36.2141L29.83 338.453L37.6464 331.411Z" fill="#F77C57"/>
<path fill-rule="evenodd" clip-rule="evenodd" d="M75.4012 338.453L74.0887 343.498L33.2999 351.793L29.83 338.453H75.4012Z" fill="#212236"/>
<path d="M306.603 38.726H328.157C331.193 38.726 333.654 36.2694 333.654 33.2389C333.654 30.3495 331.417 27.9816 328.577 27.7687C328.598 27.5028 328.607 27.2371 328.607 26.9685C328.607 20.9381 323.708 16.0514 317.666 16.0514C316.078 16.0514 314.568 16.3898 313.207 16.9968C311.885 7.78824 303.95 0.711823 294.356 0.711823C286.386 0.711555 279.562 5.59538 276.719 12.5271C275.685 12.2692 274.601 12.1319 273.484 12.1319C266.125 12.1317 260.161 18.0858 260.161 25.4287C260.161 32.7718 266.125 38.7263 273.484 38.7263L285.129 38.726" stroke="#B4DEF5" stroke-width="0.4999" stroke-linecap="round" stroke-linejoin="round"/>
<path fill-rule="evenodd" clip-rule="evenodd" d="M284.816 36.0243C284.816 30.2885 284.815 25.0716 284.815 25.0716L282.032 25.0713H281.115L291.051 13.2039L300.991 25.0713H300.071H297.285V25.1668C297.285 38.1244 296.91 38.7263 306.603 38.7263L316.751 38.726C316.751 38.726 315.525 43.0732 310.345 43.0732C305.164 43.0732 294.424 43.0732 291.316 43.0732C288.772 43.0732 286.038 42.1912 285.129 38.7263C284.929 37.9566 284.816 37.0639 284.816 36.0243Z" stroke="#B4DEF5" stroke-width="0.4999" stroke-linecap="round" stroke-linejoin="round"/>
<path fill-rule="evenodd" clip-rule="evenodd" d="M435.142 106.537C433.943 106.88 432.806 107.368 431.75 107.976C430.668 108.601 429.666 109.354 428.773 110.215C428.6 110.383 428.338 110.407 428.14 110.292L424.12 107.974L424.097 107.962C423.867 107.838 423.604 107.815 423.363 107.879C423.118 107.945 422.896 108.104 422.757 108.341L422.743 108.368L419.912 113.256C419.774 113.493 419.75 113.764 419.814 114.013C419.882 114.259 420.04 114.482 420.279 114.617L420.305 114.633L424.295 116.931C424.503 117.051 424.598 117.294 424.545 117.516L424.545 117.517C424.398 118.108 424.283 118.718 424.21 119.341C424.135 119.949 424.097 120.569 424.097 121.201C424.097 121.834 424.135 122.453 424.21 123.061C424.283 123.686 424.398 124.294 424.545 124.886C424.607 125.132 424.483 125.38 424.263 125.488L420.276 127.785L420.279 127.786C420.04 127.922 419.882 128.144 419.814 128.391C419.75 128.638 419.774 128.91 419.912 129.146L422.757 134.064V134.063C422.895 134.299 423.118 134.458 423.363 134.524C423.611 134.59 423.882 134.563 424.118 134.427L424.148 134.412L428.143 132.111C428.352 131.991 428.607 132.03 428.773 132.188C429.666 133.048 430.667 133.802 431.75 134.425C432.81 135.039 433.955 135.527 435.164 135.874C435.397 135.94 435.549 136.153 435.549 136.385L435.549 141.012C435.549 141.284 435.663 141.532 435.842 141.712C436.023 141.894 436.272 142.005 436.545 142.005H442.236C442.509 142.005 442.757 141.894 442.938 141.712C443.119 141.532 443.231 141.284 443.231 141.012L443.231 136.385C443.231 136.134 443.405 135.923 443.64 135.867C444.84 135.521 445.977 135.035 447.031 134.425C448.115 133.801 449.113 133.048 450.006 132.187C450.191 132.013 450.464 131.994 450.668 132.127L454.661 134.428C454.899 134.562 455.168 134.59 455.416 134.524C455.666 134.458 455.886 134.299 456.022 134.063L456.04 134.035L458.87 129.145L458.868 129.144C459.005 128.908 459.032 128.637 458.965 128.391C458.898 128.143 458.739 127.922 458.506 127.786L454.488 125.47C454.278 125.35 454.183 125.11 454.238 124.886H454.236C454.384 124.294 454.495 123.686 454.573 123.061C454.645 122.454 454.684 121.834 454.684 121.201C454.685 120.568 454.645 119.948 454.573 119.341C454.496 118.718 454.384 118.109 454.236 117.517C454.176 117.271 454.297 117.022 454.518 116.915L458.506 114.617C458.739 114.482 458.898 114.26 458.965 114.013C459.032 113.767 459.004 113.494 458.868 113.259L458.854 113.229L456.022 108.341C455.886 108.104 455.666 107.945 455.416 107.879C455.168 107.812 454.899 107.839 454.661 107.974L450.642 110.292C450.425 110.417 450.16 110.374 449.994 110.205C449.105 109.349 448.11 108.598 447.031 107.976C445.97 107.364 444.825 106.876 443.619 106.53C443.385 106.462 443.231 106.252 443.231 106.02L443.231 101.391C443.231 101.118 443.119 100.87 442.938 100.689C442.757 100.51 442.509 100.398 442.236 100.398L436.545 100.398C436.272 100.398 436.023 100.511 435.842 100.689C435.663 100.87 435.549 101.118 435.549 101.391L435.549 106.019C435.549 106.27 435.374 106.482 435.142 106.537ZM433.273 115.094C434.839 113.533 437.001 112.566 439.39 112.566C441.781 112.566 443.943 113.533 445.511 115.094C447.074 116.658 448.043 118.817 448.043 121.201C448.043 123.586 447.073 125.745 445.511 127.308C443.943 128.87 441.781 129.837 439.39 129.837C437.001 129.837 434.839 128.87 433.272 127.308C431.705 125.745 430.737 123.586 430.737 121.201C430.737 118.817 431.705 116.658 433.272 115.094H433.273Z" fill="#B4DEF5"/>
<path fill-rule="evenodd" clip-rule="evenodd" d="M21.361 131.668V137.786C21.361 138.904 20.4444 139.823 19.3207 139.823H13.1912C12.0701 139.823 11.1506 138.904 11.1506 137.786V131.668C11.1506 130.548 12.0701 129.634 13.1912 129.634H19.3207C20.4444 129.634 21.361 130.548 21.361 131.668Z" fill="#B4DEF5"/>
<path fill-rule="evenodd" clip-rule="evenodd" d="M21.361 152.559V158.675C21.361 159.794 20.4444 160.712 19.3207 160.712H13.1912C12.0701 160.712 11.1506 159.794 11.1506 158.675V152.559C11.1506 151.437 12.0701 150.522 13.1912 150.522H19.3207C20.4444 150.522 21.361 151.437 21.361 152.559Z" fill="#B4DEF5"/>
<path fill-rule="evenodd" clip-rule="evenodd" d="M21.361 173.447V179.563C21.361 180.684 20.4444 181.6 19.3207 181.6H13.1912C12.0701 181.6 11.1506 180.684 11.1506 179.563V173.447C11.1506 172.327 12.0701 171.411 13.1912 171.411H19.3207C20.4444 171.411 21.361 172.327 21.361 173.447Z" fill="#B4DEF5"/>
<path fill-rule="evenodd" clip-rule="evenodd" d="M21.361 194.337V200.455C21.361 201.573 20.4444 202.489 19.3207 202.489L13.1912 202.489C12.0701 202.489 11.1506 201.573 11.1506 200.455V194.337C11.1506 193.219 12.0701 192.301 13.1912 192.301H19.3207C20.4444 192.301 21.361 193.219 21.361 194.337Z" fill="#B4DEF5"/>
<path fill-rule="evenodd" clip-rule="evenodd" d="M297.166 64.277H293.223C292.501 64.277 291.909 63.6887 291.909 62.9667V59.032C291.909 58.3121 292.501 57.7214 293.223 57.7214L297.166 57.7212C297.889 57.7212 298.479 58.3121 298.479 59.0323L298.48 62.9664C298.48 63.6887 297.889 64.2775 297.166 64.277Z" fill="#B4DEF5"/>
<path fill-rule="evenodd" clip-rule="evenodd" d="M283.699 64.277H279.756C279.033 64.277 278.442 63.6887 278.442 62.9667L278.442 59.032C278.442 58.3121 279.033 57.7214 279.756 57.7214L283.699 57.7212C284.422 57.7212 285.013 58.3121 285.013 59.0323V62.9664C285.013 63.6887 284.422 64.2775 283.699 64.277Z" fill="#B4DEF5"/>
<path fill-rule="evenodd" clip-rule="evenodd" d="M270.232 64.277H266.289C265.567 64.277 264.977 63.6887 264.977 62.9667V59.032C264.977 58.3121 265.566 57.7214 266.289 57.7214L270.232 57.7212C270.954 57.7212 271.546 58.3121 271.546 59.0323V62.9664C271.546 63.6887 270.954 64.2775 270.232 64.277Z" fill="#B4DEF5"/>
<path fill-rule="evenodd" clip-rule="evenodd" d="M256.764 64.277H252.821C252.099 64.277 251.508 63.6887 251.508 62.9667V59.032C251.508 58.3121 252.099 57.7214 252.821 57.7214L256.764 57.7212C257.487 57.7212 258.078 58.3121 258.078 59.0323V62.9664C258.078 63.6887 257.487 64.2775 256.764 64.277Z" fill="#B4DEF5"/>
<path fill-rule="evenodd" clip-rule="evenodd" d="M158.699 326.978C158.715 327.473 158.326 327.887 157.831 327.903C157.335 327.918 156.92 327.528 156.905 327.035C156.905 327.001 156.398 314.613 161.98 312.226C162.435 312.032 162.965 312.245 163.157 312.701C163.352 313.157 163.14 313.682 162.684 313.877C158.254 315.772 158.698 326.946 158.699 326.978Z" fill="#00AD94"/>
<path fill-rule="evenodd" clip-rule="evenodd" d="M323.35 284.168C323.35 284.168 311.521 292.189 309.161 292.189C306.802 292.189 297.589 292.189 291.481 292.189C285.372 292.189 272.367 293.534 268.508 288.935C263.366 282.808 263.056 273.278 274.248 271.673C283.767 270.306 306.955 272.712 307.425 274.634C307.873 276.45 323.35 284.168 323.35 284.168Z" fill="#354E9D"/>
<path d="M301.012 276.147L297.283 284.715" stroke="#FEFEFE" stroke-width="0.25" stroke-linecap="round" stroke-linejoin="round"/>
<path d="M296.053 276.147L292.322 284.715" stroke="#FEFEFE" stroke-width="0.25" stroke-linecap="round" stroke-linejoin="round"/>
<path d="M291.093 276.147L287.362 284.715" stroke="#FEFEFE" stroke-width="0.25" stroke-linecap="round" stroke-linejoin="round"/>
<path d="M286.132 276.147L282.402 284.715" stroke="#FEFEFE" stroke-width="0.25" stroke-linecap="round" stroke-linejoin="round"/>
<path d="M301.012 284.715L297.283 276.147" stroke="#FEFEFE" stroke-width="0.25" stroke-linecap="round" stroke-linejoin="round"/>
<path d="M296.053 284.715L292.322 276.147" stroke="#FEFEFE" stroke-width="0.25" stroke-linecap="round" stroke-linejoin="round"/>
<path d="M291.093 284.715L287.362 276.147" stroke="#FEFEFE" stroke-width="0.25" stroke-linecap="round" stroke-linejoin="round"/>
<path d="M286.132 284.715L282.402 276.147" stroke="#FEFEFE" stroke-width="0.25" stroke-linecap="round" stroke-linejoin="round"/>
<path fill-rule="evenodd" clip-rule="evenodd" d="M356.147 147.449C356.147 147.449 353.374 144.529 361.557 149.259C367.401 152.64 387.322 184.951 395.708 199.138C408.222 220.309 383.794 231.512 363.271 242.854C363.271 242.854 358.644 240.973 358.116 240.063C357.589 239.155 359.705 236.932 358.218 236.349C356.73 235.765 357.25 234.628 358.262 233.286C359.273 231.948 378.65 216.657 379.766 212.285C380.881 207.91 355.975 178.803 353.468 174.617C350.957 170.429 347.793 156.174 356.147 147.449Z" fill="#F77C57"/>
<path fill-rule="evenodd" clip-rule="evenodd" d="M298.074 147.157C298.074 147.157 300.848 144.238 292.665 148.969C286.822 152.349 266.9 184.662 258.515 198.846C245.998 220.019 270.43 231.218 290.952 242.561C290.952 242.561 295.577 240.682 296.105 239.774C296.634 238.866 294.518 236.643 296.005 236.059C297.492 235.474 296.973 234.336 295.959 232.995C294.949 231.656 275.573 216.366 274.456 211.994C273.34 207.62 298.246 178.513 300.755 174.325C303.265 170.137 306.43 155.883 298.074 147.157Z" fill="#F77C57" stroke="#F77C57" stroke-width="0.0761999"/>
<path fill-rule="evenodd" clip-rule="evenodd" d="M337.115 137.12C325.171 139.011 328.532 138.974 316.503 137.13L315.116 137.807L295.153 147.535L297.241 182.879C297.369 184.87 297.501 186.785 297.632 188.631L297.71 192.372C297.71 192.372 296.324 221.696 296.652 222.956C296.979 224.215 299.627 227.218 299.627 227.218C299.523 228.013 299.408 228.863 299.287 229.75C304.056 231.743 312.922 234.31 326.8 234.19C340.679 234.31 349.545 231.744 354.313 229.75C354.191 228.863 354.079 228.013 353.974 227.218C353.974 227.218 356.621 224.215 356.949 222.956C357.277 221.696 355.89 192.372 355.89 192.372L355.97 188.631C356.099 186.785 356.229 184.87 356.36 182.879L358.448 147.535L338.484 137.807L337.115 137.12Z" fill="#F77C57"/>
<path fill-rule="evenodd" clip-rule="evenodd" d="M326.476 138.52L326.926 138.584L327.41 138.515C329.403 138.443 331.665 137.982 337.115 137.12L338.484 137.807L341.254 139.156L340.37 140.114C331.241 149.996 322.368 149.996 313.239 140.114L312.352 139.153L315.116 137.807L316.502 137.13C322.18 138 324.429 138.467 326.476 138.52Z" fill="#FEFEFE"/>
<path fill-rule="evenodd" clip-rule="evenodd" d="M335.141 114.751L334.896 120.463C334.896 120.463 334.896 132.166 334.896 133.944C334.896 134.802 335.701 136.042 337.115 137.12C329.76 145.082 323.85 145.082 316.493 137.12C317.909 136.042 318.711 134.802 318.711 133.944C318.711 132.166 318.711 120.463 318.711 120.463L318.468 114.751C318.468 114.751 322.571 115.487 326.803 116.521C331.037 115.487 335.141 114.751 335.141 114.751Z" fill="#ED7C6F"/>
<path fill-rule="evenodd" clip-rule="evenodd" d="M406.894 251.807C407.99 250.273 415.033 237.866 415.033 237.866C415.033 237.865 401.517 237.866 396.138 237.866C390.76 237.865 374.299 241.512 365.847 241.621C357.397 241.731 289.68 238.445 289.68 238.445C289.681 238.445 258.417 232.423 254.064 231.888C249.712 231.351 257.635 253.12 259.17 254.873C260.707 256.625 330.288 278.531 336.216 276.558C342.141 274.588 406.894 251.807 406.894 251.807Z" fill="#26315B"/>
<path fill-rule="evenodd" clip-rule="evenodd" d="M328.617 268.64C328.617 268.64 395.783 242.137 404.123 239.727C412.466 237.316 418.611 236.77 422.672 240.931C426.732 245.093 428.597 253.856 422.672 259.99C416.746 266.123 375.699 277.183 358.798 279.593C341.897 282.002 335.257 283.427 332.732 283.754C330.208 284.083 328.671 283.646 327.958 281.455C327.243 279.264 326.147 272.693 326.202 271.215C326.258 269.736 328.617 268.64 328.617 268.64Z" fill="#26315B"/>
<path fill-rule="evenodd" clip-rule="evenodd" d="M348.977 288.624C348.977 288.624 348.48 292.189 350.841 292.189C353.2 292.189 362.413 292.189 368.522 292.189C374.63 292.189 387.635 293.534 391.493 288.935C396.634 282.808 396.945 273.278 385.752 271.673C376.236 270.306 353.046 272.712 352.575 274.634C352.129 276.45 348.977 288.624 348.977 288.624Z" fill="#354E9D"/>
<path fill-rule="evenodd" clip-rule="evenodd" d="M382.294 184.912H347.713H305.886H271.307C269.623 184.912 268.503 186.287 268.819 187.969L279.861 246.692C280.175 248.374 281.812 249.75 283.498 249.75H293.698H359.903H370.103C371.787 249.75 373.425 248.375 373.74 246.692L384.782 187.968C385.096 186.287 383.977 184.912 382.294 184.912Z" fill="#A7ACAD"/>
<path fill-rule="evenodd" clip-rule="evenodd" d="M343.763 272.419C343.763 272.419 348.262 274.336 353.531 274.72C358.797 275.102 356.768 280.414 356.657 282.934C356.546 285.452 353.639 289.122 352.376 289.231C351.115 289.34 341.456 286.712 341.456 286.712L343.763 272.419Z" fill="#F4AF98"/>
<path fill-rule="evenodd" clip-rule="evenodd" d="M344.31 271.105C344.31 271.105 274.071 238.467 261.997 234.087C249.924 229.707 236.536 229.268 232.146 241.972C227.755 254.677 234.56 263.44 255.851 271.98C277.142 280.525 337.176 289.066 339.482 288.74C341.786 288.41 342.226 287.808 343.377 284.522C344.529 281.237 345.792 275.158 345.902 274.227C346.012 273.296 345.297 271.324 344.31 271.105Z" fill="#26315B"/>
<path d="M357.209 178.858C357.209 178.858 356.32 161.407 359.536 154.455" stroke="#F77C57" stroke-width="0.1999" stroke-linecap="round" stroke-linejoin="round"/>
<path d="M296.859 178.858C296.859 178.858 297.748 161.407 294.534 154.455" stroke="#F77C57" stroke-width="0.1999" stroke-linecap="round" stroke-linejoin="round"/>
<path d="M345.902 274.227C346.012 273.296 345.297 271.324 344.31 271.105C344.31 271.105 289.153 245.476 268.193 236.591" stroke="#3E4F9E" stroke-width="0.1999" stroke-linecap="round" stroke-linejoin="round"/>
<path d="M334.27 266.415C350.626 259.983 397.265 241.708 404.123 239.727" stroke="#3E4F9E" stroke-width="0.1999" stroke-linecap="round" stroke-linejoin="round"/>
<path fill-rule="evenodd" clip-rule="evenodd" d="M347.953 105.921C348.098 105.94 348.239 105.964 348.38 105.994L348.386 105.996H348.384C350.981 106.539 352.954 108.811 353.007 111.573C353.068 114.781 350.51 117.433 347.296 117.493C344.079 117.553 341.423 115.002 341.361 111.793C341.327 109.929 342.174 108.253 343.524 107.164C343.374 108.879 343.648 111.002 345.843 111.215L345.779 107.865C345.753 106.508 347.019 105.884 347.953 105.921Z" fill="#E66E9B"/>
<path fill-rule="evenodd" clip-rule="evenodd" d="M305.924 105.921C305.779 105.94 305.636 105.964 305.495 105.994L305.491 105.996C302.894 106.539 300.921 108.811 300.868 111.573C300.808 114.781 303.366 117.433 306.581 117.493C309.796 117.553 312.452 115.002 312.514 111.793C312.549 109.929 311.701 108.253 310.353 107.164C310.502 108.879 310.228 111.002 308.033 111.215L308.095 107.865C308.124 106.508 306.853 105.884 305.924 105.921Z" fill="#E66E9B"/>
<path fill-rule="evenodd" clip-rule="evenodd" d="M326.937 76.8913C337.903 76.8913 346.876 85.846 346.876 96.7902L346.877 114.885C346.877 125.83 337.903 134.783 326.937 134.783V134.783C315.973 134.783 307 125.83 307 114.885L307.001 96.7902C307.001 85.846 315.973 76.8916 326.937 76.8913Z" fill="#F1BBC7"/>
<path fill-rule="evenodd" clip-rule="evenodd" d="M315.612 116.836C317.058 116.809 318.255 117.958 318.282 119.402C318.311 120.847 317.16 122.041 315.711 122.069C314.264 122.095 313.067 120.946 313.04 119.502C313.013 118.056 314.166 116.863 315.612 116.836Z" fill="#E66E9B"/>
<path fill-rule="evenodd" clip-rule="evenodd" d="M338.162 116.408C339.612 116.381 340.807 117.53 340.836 118.974C340.862 120.419 339.711 121.612 338.264 121.64C336.816 121.668 335.62 120.52 335.592 119.074C335.563 117.631 336.715 116.435 338.162 116.408Z" fill="#E66E9B"/>
<path fill-rule="evenodd" clip-rule="evenodd" d="M339.664 105.346C340.013 105.52 340.437 105.379 340.614 105.032C340.788 104.683 340.645 104.258 340.298 104.085C338.421 103.12 335.914 103.006 334.071 104.11C333.739 104.309 333.63 104.745 333.828 105.078C334.029 105.413 334.467 105.522 334.8 105.322C336.29 104.429 338.156 104.627 339.664 105.346Z" fill="#292C56"/>
<path fill-rule="evenodd" clip-rule="evenodd" d="M314.209 105.348C315.72 104.627 317.584 104.429 319.075 105.322C319.409 105.521 319.847 105.413 320.046 105.078C320.248 104.745 320.136 104.309 319.802 104.11C317.962 103.006 315.454 103.12 313.577 104.083C313.23 104.258 313.087 104.683 313.262 105.032C313.436 105.379 313.864 105.52 314.209 105.348Z" fill="#292C56"/>
<path fill-rule="evenodd" clip-rule="evenodd" d="M315.177 112.326C315.177 111.836 315.37 111.369 315.719 111.024C316.064 110.677 316.532 110.484 317.022 110.484C317.513 110.484 317.98 110.677 318.325 111.024C318.673 111.369 318.868 111.835 318.868 112.326C318.868 112.717 319.185 113.033 319.577 113.033C319.969 113.033 320.287 112.717 320.287 112.326C320.287 111.459 319.944 110.634 319.33 110.022C318.717 109.409 317.891 109.067 317.022 109.067C316.156 109.067 315.327 109.41 314.713 110.022C314.098 110.634 313.756 111.46 313.756 112.326C313.756 112.717 314.075 113.033 314.467 113.033C314.859 113.033 315.177 112.717 315.177 112.326Z" fill="#292C56"/>
<path fill-rule="evenodd" clip-rule="evenodd" d="M335.008 112.326C335.008 111.836 335.201 111.369 335.55 111.024C335.895 110.677 336.363 110.484 336.855 110.484C337.343 110.484 337.81 110.677 338.159 111.024C338.506 111.369 338.7 111.835 338.7 112.326C338.7 112.717 339.018 113.033 339.408 113.033C339.8 113.033 340.118 112.717 340.118 112.326C340.118 111.459 339.774 110.634 339.162 110.022C338.548 109.409 337.722 109.067 336.855 109.067C335.985 109.067 335.159 109.41 334.545 110.022C333.929 110.634 333.589 111.46 333.589 112.326C333.589 112.717 333.908 113.033 334.299 113.033C334.69 113.033 335.008 112.717 335.008 112.326Z" fill="#292C56"/>
<path fill-rule="evenodd" clip-rule="evenodd" d="M346.877 111.543C346.877 111.543 343.896 110.333 343.896 105.243C343.896 100.153 343.896 101.407 343.896 98.7506C343.896 96.095 342.047 91.4487 336.651 91.4487C331.256 91.4487 326.937 91.4487 326.937 91.4487C326.937 91.4487 322.617 91.4487 317.22 91.4487C311.825 91.4487 309.978 96.0952 309.978 98.7506C309.978 101.406 309.978 100.153 309.978 105.243C309.978 110.332 306.997 111.543 306.997 111.543C306.998 107.508 305.763 105.92 305.763 105.92C305.763 105.92 305.763 100.519 305.763 95.7988C305.763 91.079 307.095 84.7353 313.303 80.3841C319.512 76.0319 326.937 76.1062 326.937 76.1062C326.937 76.1062 334.36 76.0319 340.569 80.3841C346.779 84.735 348.108 91.079 348.108 95.7988C348.109 100.519 348.108 105.92 348.108 105.92C348.109 105.92 346.876 107.508 346.877 111.543Z" fill="#292C56"/>
<path fill-rule="evenodd" clip-rule="evenodd" d="M328.403 114.478C328.403 114.478 329.567 116.851 329.495 117.549C329.423 118.247 328.095 118.348 327.557 117.738C327.02 117.128 327.747 114.71 327.948 114.509C328.151 114.311 328.267 114.318 328.403 114.478Z" fill="#F2D4DD"/>
<path fill-rule="evenodd" clip-rule="evenodd" d="M332.761 123.727C333.031 123.48 333.049 123.061 332.803 122.79C332.556 122.521 332.135 122.502 331.864 122.749C330.912 123.62 328.939 124.055 326.938 124.055C324.937 124.055 322.963 123.62 322.012 122.749C321.74 122.502 321.32 122.521 321.073 122.79C320.825 123.06 320.843 123.48 321.113 123.727C322.325 124.833 324.645 125.386 326.938 125.386C329.23 125.386 331.549 124.833 332.761 123.727Z" fill="#E66E9B"/>
<path fill-rule="evenodd" clip-rule="evenodd" d="M347.953 105.921C348.098 105.94 348.239 105.964 348.38 105.994L348.386 105.996H348.384C350.981 106.539 352.954 108.811 353.007 111.573C353.068 114.781 350.51 117.433 347.296 117.493C344.079 117.553 341.423 115.002 341.361 111.793C341.327 109.929 342.174 108.253 343.524 107.164C343.374 108.879 343.648 111.002 345.843 111.215L345.779 107.865C345.753 106.508 347.019 105.884 347.953 105.921Z" fill="#ED7C6F"/>
<path fill-rule="evenodd" clip-rule="evenodd" d="M305.924 105.921C305.779 105.94 305.636 105.964 305.495 105.994L305.491 105.996C302.894 106.539 300.921 108.811 300.868 111.573C300.808 114.781 303.366 117.433 306.581 117.493C309.796 117.553 312.452 115.002 312.514 111.793C312.549 109.929 311.701 108.253 310.353 107.164C310.502 108.879 310.228 111.002 308.033 111.215L308.095 107.865C308.124 106.508 306.853 105.884 305.924 105.921Z" fill="#ED7C6F"/>
<path fill-rule="evenodd" clip-rule="evenodd" d="M326.937 76.8913C337.903 76.8913 346.876 85.846 346.876 96.7902L346.877 114.885C346.877 125.83 337.903 134.783 326.937 134.783V134.783C315.973 134.783 307 125.83 307 114.885L307.001 96.7902C307.001 85.846 315.973 76.8916 326.937 76.8913Z" fill="#F4AF98"/>
<path fill-rule="evenodd" clip-rule="evenodd" d="M315.612 118.083C317.058 118.055 318.255 119.205 318.282 120.65C318.311 122.094 317.16 123.288 315.711 123.317C314.264 123.344 313.067 122.195 313.04 120.75C313.013 119.306 314.166 118.112 315.612 118.083Z" fill="#ED7C6F"/>
<path fill-rule="evenodd" clip-rule="evenodd" d="M338.162 117.656C339.612 117.631 340.807 118.778 340.836 120.222C340.862 121.667 339.711 122.861 338.264 122.889C336.816 122.915 335.62 121.767 335.592 120.321C335.563 118.878 336.715 117.683 338.162 117.656Z" fill="#ED7C6F"/>
<path fill-rule="evenodd" clip-rule="evenodd" d="M339.664 105.346C340.013 105.52 340.437 105.379 340.614 105.032C340.788 104.683 340.645 104.258 340.298 104.085C338.421 103.12 335.914 103.006 334.071 104.11C333.739 104.309 333.63 104.745 333.828 105.078C334.029 105.413 334.467 105.522 334.8 105.322C336.29 104.429 338.156 104.627 339.664 105.346Z" fill="#26315B"/>
<path fill-rule="evenodd" clip-rule="evenodd" d="M314.209 105.348C315.72 104.627 317.584 104.429 319.075 105.322C319.409 105.521 319.847 105.413 320.046 105.078C320.248 104.745 320.136 104.309 319.802 104.11C317.962 103.006 315.454 103.12 313.577 104.083C313.23 104.258 313.087 104.683 313.262 105.032C313.436 105.379 313.864 105.52 314.209 105.348Z" fill="#26315B"/>
<path fill-rule="evenodd" clip-rule="evenodd" d="M315.177 114.732C315.177 114.242 315.37 113.776 315.719 113.429C316.064 113.082 316.532 112.891 317.022 112.891C317.513 112.891 317.98 113.083 318.325 113.429C318.673 113.775 318.868 114.242 318.868 114.732C318.868 115.122 319.185 115.441 319.577 115.441C319.969 115.441 320.287 115.123 320.287 114.732C320.287 113.866 319.944 113.041 319.33 112.428C318.717 111.816 317.891 111.474 317.022 111.474C316.156 111.474 315.327 111.815 314.713 112.428C314.098 113.041 313.756 113.866 313.756 114.732C313.756 115.122 314.075 115.441 314.467 115.441C314.859 115.441 315.177 115.123 315.177 114.732Z" fill="#26315B"/>
<path fill-rule="evenodd" clip-rule="evenodd" d="M335.008 114.732C335.008 114.242 335.201 113.776 335.55 113.429C335.895 113.082 336.363 112.891 336.855 112.891C337.343 112.891 337.81 113.083 338.159 113.429C338.506 113.775 338.7 114.242 338.7 114.732C338.7 115.122 339.018 115.441 339.408 115.441C339.8 115.441 340.118 115.123 340.118 114.732C340.118 113.866 339.774 113.041 339.162 112.428C338.548 111.816 337.722 111.474 336.855 111.474C335.985 111.474 335.159 111.815 334.545 112.428C333.929 113.041 333.589 113.866 333.589 114.732C333.589 115.122 333.908 115.441 334.299 115.441C334.69 115.441 335.008 115.123 335.008 114.732Z" fill="#26315B"/>
<path fill-rule="evenodd" clip-rule="evenodd" d="M346.877 111.543C346.877 111.543 343.896 110.333 343.896 105.243C343.896 100.153 343.896 101.407 343.896 98.7506C343.896 96.095 342.047 91.4487 336.651 91.4487C331.256 91.4487 326.937 91.4487 326.937 91.4487C326.937 91.4487 322.617 91.4487 317.22 91.4487C311.825 91.4487 309.978 96.0952 309.978 98.7506C309.978 101.406 309.978 100.153 309.978 105.243C309.978 110.332 306.997 111.543 306.997 111.543C306.998 107.508 305.763 105.92 305.763 105.92C305.763 105.92 305.763 100.519 305.763 95.7988C305.763 91.079 307.095 84.7353 313.303 80.3841C319.512 76.0319 326.937 76.1062 326.937 76.1062C326.937 76.1062 334.36 76.0319 340.569 80.3841C346.779 84.735 348.108 91.079 348.108 95.7988C348.109 100.519 348.108 105.92 348.108 105.92C348.109 105.92 346.876 107.508 346.877 111.543Z" fill="#26315B"/>
<path fill-rule="evenodd" clip-rule="evenodd" d="M327.674 115.945C327.674 115.945 328.838 118.319 328.766 119.018C328.691 119.716 327.366 119.815 326.827 119.205C326.291 118.596 327.017 116.177 327.219 115.977C327.421 115.78 327.537 115.786 327.674 115.945Z" fill="#F2D4DD"/>
<path fill-rule="evenodd" clip-rule="evenodd" d="M331.689 121.854C331.909 121.654 331.924 121.311 331.723 121.09C331.522 120.871 331.177 120.857 330.958 121.057C330.182 121.767 328.568 122.122 326.938 122.122C325.305 122.122 323.695 121.767 322.918 121.057C322.698 120.856 322.355 120.871 322.154 121.09C321.951 121.311 321.967 121.654 322.186 121.854C323.176 122.756 325.068 123.207 326.938 123.207C328.808 123.207 330.699 122.756 331.689 121.854Z" fill="#ED7C6F"/>
<path fill-rule="evenodd" clip-rule="evenodd" d="M328.8 88.8974C328.8 88.8974 336.71 100.153 345.663 96.9639C358.48 92.3997 359.096 69.7979 338.208 70.7245C332.742 70.9677 327.705 73.0388 326.937 76.8917C325.405 84.5764 328.8 88.8976 328.8 88.8974Z" fill="#26315B"/>
<path fill-rule="evenodd" clip-rule="evenodd" d="M318.993 87.169C318.993 87.169 329.776 84.8587 331.831 78.7028C334.771 69.891 320.65 64.4924 311.705 77.4058C309.367 80.7859 308.388 84.3102 310.491 85.6331C314.69 88.2738 318.993 87.169 318.993 87.169Z" fill="#26315B"/>
<path d="M358.989 276.147L362.719 284.715" stroke="#FEFEFE" stroke-width="0.25" stroke-linecap="round" stroke-linejoin="round"/>
<path d="M363.949 276.147L367.681 284.715" stroke="#FEFEFE" stroke-width="0.25" stroke-linecap="round" stroke-linejoin="round"/>
<path d="M368.908 276.147L372.64 284.715" stroke="#FEFEFE" stroke-width="0.25" stroke-linecap="round" stroke-linejoin="round"/>
<path d="M373.87 276.147L377.6 284.715" stroke="#FEFEFE" stroke-width="0.25" stroke-linecap="round" stroke-linejoin="round"/>
<path d="M358.989 284.715L362.719 276.147" stroke="#FEFEFE" stroke-width="0.25" stroke-linecap="round" stroke-linejoin="round"/>
<path d="M363.949 284.715L367.681 276.147" stroke="#FEFEFE" stroke-width="0.25" stroke-linecap="round" stroke-linejoin="round"/>
<path d="M368.908 284.715L372.64 276.147" stroke="#FEFEFE" stroke-width="0.25" stroke-linecap="round" stroke-linejoin="round"/>
<path d="M373.87 284.715L377.6 276.147" stroke="#FEFEFE" stroke-width="0.25" stroke-linecap="round" stroke-linejoin="round"/>
<path fill-rule="evenodd" clip-rule="evenodd" d="M364.65 189.09H382.294C382.972 189.09 383.56 189.3 383.999 189.652C384.146 189.77 384.278 189.908 384.389 190.056L384.782 187.968C384.911 187.282 384.802 186.647 384.51 186.139C384.091 185.394 383.291 184.912 382.294 184.912L361.363 184.912H356.225H347.713H305.886H297.374H292.63H271.307C269.623 184.912 268.503 186.287 268.819 187.969L269.212 190.056C269.656 189.463 270.398 189.09 271.307 189.09H289.345H297.64H305.886H347.713H355.959H364.65Z" fill="#E5E8E7"/>
<path fill-rule="evenodd" clip-rule="evenodd" d="M303.572 231.278C328.199 225.884 344.77 213.6 356.17 198.5C358.46 195.466 360.543 192.318 362.44 189.09H355.959H347.713H305.886H297.64H289.345H271.307C270.398 189.09 269.656 189.463 269.212 190.056L277.512 234.204C283.982 234.075 290.037 233.567 295.704 232.722C298.414 232.316 301.035 231.833 303.572 231.278Z" fill="#BABFBF"/>
</svg>
